<mxfile host="65bd71144e">
    <diagram id="rRU5jyDv9j1frwpmCDwa" name="第 1 页">
        <mxGraphModel dx="1108" dy="1866" grid="1" gridSize="10" guides="1" tooltips="1" connect="1" arrows="1" fold="1" page="1" pageScale="1" pageWidth="827" pageHeight="1169" math="0" shadow="0">
            <root>
                <mxCell id="0"/>
                <mxCell id="1" parent="0"/>
                <mxCell id="2" style="edgeStyle=none;html=1;entryX=-0.028;entryY=0.324;entryDx=0;entryDy=0;fontSize=18;entryPerimeter=0;exitX=1.022;exitY=0.338;exitDx=0;exitDy=0;exitPerimeter=0;endSize=14;" edge="1" parent="1" source="3" target="6">
                    <mxGeometry relative="1" as="geometry"/>
                </mxCell>
                <mxCell id="3" value="" style="rounded=0;whiteSpace=wrap;html=1;" vertex="1" parent="1">
                    <mxGeometry x="60" y="-280" width="120" height="820" as="geometry"/>
                </mxCell>
                <mxCell id="4" value="客户端" style="text;html=1;align=center;verticalAlign=middle;resizable=0;points=[];autosize=1;strokeColor=none;fillColor=none;" vertex="1" parent="1">
                    <mxGeometry x="90" y="-335" width="60" height="30" as="geometry"/>
                </mxCell>
                <mxCell id="5" style="edgeStyle=none;html=1;exitX=-0.035;exitY=0.595;exitDx=0;exitDy=0;entryX=1.003;entryY=0.624;entryDx=0;entryDy=0;entryPerimeter=0;fontSize=18;endSize=14;exitPerimeter=0;" edge="1" parent="1" source="6" target="3">
                    <mxGeometry relative="1" as="geometry"/>
                </mxCell>
                <mxCell id="6" value="" style="rounded=0;whiteSpace=wrap;html=1;" vertex="1" parent="1">
                    <mxGeometry x="990" y="-280" width="120" height="865" as="geometry"/>
                </mxCell>
                <mxCell id="7" value="服务端" style="text;html=1;align=center;verticalAlign=middle;resizable=0;points=[];autosize=1;strokeColor=none;fillColor=none;" vertex="1" parent="1">
                    <mxGeometry x="1020" y="-335" width="60" height="30" as="geometry"/>
                </mxCell>
                <mxCell id="8" value="登录请求" style="text;html=1;align=center;verticalAlign=middle;resizable=0;points=[];autosize=1;strokeColor=none;fillColor=none;" vertex="1" parent="1">
                    <mxGeometry x="520" y="-320" width="70" height="30" as="geometry"/>
                </mxCell>
                <mxCell id="9" value="Login" style="text;html=1;align=center;verticalAlign=middle;resizable=0;points=[];autosize=1;strokeColor=none;fillColor=none;fontSize=20;" vertex="1" parent="1">
                    <mxGeometry x="520" y="-360" width="70" height="40" as="geometry"/>
                </mxCell>
                <mxCell id="14" value="" style="shape=image;verticalLabelPosition=bottom;labelBackgroundColor=default;verticalAlign=top;aspect=fixed;imageAspect=0;image=data:image/png,iVBORw0KGgoAAAANSUhEUgAAA1kAAAFGCAYAAACYHlVUAAAgAElEQVR4nOzdb2wb550v+q9Td7tuFk0uuqMqrlWbbFRvSai9knKlK7XFKdCU4gtLIwLpfVGge3wgUwUr9EKQcJAJnZeJwuBAgrALLhHJAnJaYN8kAD2WcECx7b27yC4FaSsZLUF2XTakXaquotnsbbonzUn/JPfFzHD+cEiR0pCS7O8HEGBzOPM888yQen7ze55HZx771t98CCIiIiIiInLF2Q8/cva460BERERERPTAOIszHznuOhARERERET0wzuLMI8ddByIiIiIiogfGWZw505IDf+M738SNz76Fa7M/wmvmDc+M453gJ/HWzj/gc3/3ZkvKJiIiIiIiOi5nPjFxowULX3wW35//KsYeA3A3i79FD757qd7738bfXruJ5x22vPD8BL576T3cWvl7fAtfw88nPoXNlb/HtzaM93zjO9/EjT6Y3nMJn2qgnBeen8B3kcVjL2ypLwxp+941vUZEREREdARff+pRPPN4A2/8ze/x7R//ofr1xz+G/9YDJN54H8XPnMMrHX90fh8A4KN49umz2Pnhe/iB0+bPnMMrn3sEeP+PePmN91EE4P38xxHB/8J//dkH9etbqd8j+OuvnMOXPtbAOQEo/vxdvPzLxt77oGjRqhdv4luzwPfnv4pL//42fvJ3K3hM33SETNY3Pg289c45jE18E9+HNdCq2PgRPuf0epXP4ic/+gfceuareOfGk1qARkRERETkrh/8+F3ngMfsM+fwSofThkfw1z1n8W/33kURAH75Pv754jk8+5k/NBS4eD//cTz7afPItQ/w+g+t9Sn+7H8h+5U/x18//jt87zfaa/bAqKp+H+Kff6y9//GP4b899RFkf2zsby7/GwdX84FTM8j64vm/wH8ZeKLmjql/fRupf/33Ood+E9+aVYOob3znm3in75xl66f6vop3bnxV/c/dLB574W0j+1XlHMYmJjBm+//Pe8t4q68LX9BeHZuYwBufXsFXXq9TLVP9XtsAXtt4U82ETXwT30+91ciORERERERt4f38n+NL7/0e364EPB/ge/c+wCufO4ev/7JGtsqmdibJlpF66lE88fN3sVPZfkBWDNACrLP4BIAvPfUovmQr97Va+z3gagZZz3xRwBfP/0XNHZ/8y3MHBFmG1/7u740GrpPJ0oMyM8twwRoZKvN77n1tAu/cqF0XtVw1yzb4plqHSv2eGcc7DZ0REREREVGDzMP9mtnvM+fw7F/+CS+/YRsa+Mv38PKjH8ezX/kY3qwc0xoweZ9+FM/85vd4+d16BXyA773xLr6n1/GpR7DzSwCOGTUHT5zDK59WF9H77a/esw43xO/x8i8B7+cbPNYDpmaQ9d//5S182VN78Oir//Lr2kfVAikA+OnOXXyqr3qOlCWTBeCnqRV85fXPWoIfwzlc+rTxP+uiGgP4T6b5Xs+/sFKZc6XO1TqnHdtc+mdxa+MuBoNfxTs3eqrmg73172/XPjciIiIiohZTh/l9iNd/6ByYFX/2O7z8+Y/j2ac/rg3b0wKmSmbpQ/zzL/4APPFReD/3KF75nMNBTHPAvv6kOtzvBwC+3mglf/0evv0zo76vPK0OSyz+/F1T5u3hVDPI+sW//Q7//V/28J//j86qbf9U+g1e/4lS+6iv38Rj0AKt/R/hc9car9CtN9/GWN9X8c7zn7QsPvGFoa/hG6//CK89M44bfefw1l3gi0MAep/Uhguew9gzX8M3Nu5ibP6rGMNd/K0ep3V8DT+/cQlvVYKtN/Ha62/itde1LNiNcaDGwhtEREREREf2sbN49ukDlkPQ5zM9/jFEPv0hir95BM88/SieqfX+9/+Il38MRJ56FM9qQwK9n3gE6ryrP6Lv6XP48q+swwW//tTH8cQvrHOnvJ//OJ55/Azw1Dn8+ofvNXxKTzz5cbzyuBpY/fZX7+HbPzQyWWpQ9wH++VcNH+6BUvdKv/ovv8YXz/8F/vdPG8MG3/39n/Dy/9NkaDpUb8U/mDJNb+K1v3sTrw19DT+f6MEbz2zhH/U3PfYp/N/PfxM3Lp0D7mbxuRe2AAzgjYlzeOud9/Cpx4Cf/n+fwovfAd56DMDd/8BP9BL3/wNvAfjCXw0A2NKGF5pr8El898YEvqv9z55lA1cbJCIiIqKjMK3m58i8sMRv3sd//aF9m21Fwc+cwysX9fe+r734UXz50Q/wb3gEwB/w8g//cPDCE585hwj+hOL7wGtvfIBvfOVj+LUeZz3+CP7y/Q9Qa6m6X//id3j5N2q5zz59Dq98WlsMw7TQBxe+qOHl//cebvxff4VH/+wjAIDr/6OI//n+nw5VWNU8LNOwQouNH+FzGwN4wxT4AOfwhUuwBTxv4+47b+Pumx/HWB9w90d/j698Wp1X9dN/3QI6ntTet4V/vNuDL1w6jxdgHVJYUQkEay8nT0RERETUEr98r+YQO++jZ/Dbdw/uf3/9qY8Cv/gDoM2TAoDPPnoGqDMv6+uPfoDEzz7AN76iBWZvAF9/6iyeAOB94iP4xMfO4NmnPsC39+uVrAZ0arD1KF45KKB8CBwYZO399veYvvkLPPNFAf9U/A1+cv9/HrqwqgyRE8es13u4tfM7jPV9EtADJQDAm7i38Un8pOPJysqDL/zVJwG8jX98HcB3jCM8/69v47uXPon/9AwAh9UHX/iaXuYn8d0b38TFOgttEBERERG5z2k1v0fw5b8EstkPqt/+3gemQOYRPPHuH/C93wDPml879yF+/dvaJf7gZ+8D+Kj1tR+/ix/gEfz1V87gt+9/iE8AtYNA/e9uAVCXdX9Xy2493B45+C3q/KzYj+7hn0rNr733heAE3uhV//3Wzj/gsWsrxk/KvMDEZ/H9+Qm8owVY+nv/9q62+fZNPLZyF29pQdD3h9SXn399y3KMi/8bgHf+Az+xV+T1+/gpgE91fNa2QS33u5e0MlNvo7JE/Hfs7yUiIiIiahGH4Xnez/85voQ/4Z/sf3/q0TPWF/ABvvcz2yqEj38UPQ77NuLrT53Dl/BHJO59aHpVHRZoWRjjl+/h2z98V/358Z/Q89SjeOXpR/HKUx/Fw6xFf4zY5J27+JvbwIt9B2Wy3sS3Nnrwzl/dNw0H1IImnfaHhtW/azWBn/faVyH8JC49Bry1cxevAbbxn1v4yjXrvCpjbpZ5iOCbeExfEKPvq3hn/pK2iiERERERUet4n/gIPvHeHyrZqdorDD6CL//lGfz23+oPIfz6k6Y/YtwwfSn4D9RyP2P6W7emIPAJnKn6u1gWj/8ZXnn6zwAAxZ83VYEHQsuCrG8AeOudu7g++yO8NvQ1vIgG5mS9fhPq3yIewBs3eip/ZBh3f2EZumf5u1sWWiA19DX8/MZX1eF/79zF39iGB+pLu6PO/KvnX1jB89rQxRe/81m89ne1pvwREREREdXxm/eRfu/Rg1cXxIf45x//AZVA573f49s/1LNTH8WzT/8ZvJX3foDXf+YwhFD3+McQOPdHJJpZr05b/h2/eg/f1o/9yz+i+DkjYPrtr95DEcCXoS1ycUCW7GFd+OLMJyZufHjw29yk/i2sscf0/3OhCSIiIiIienAcQ5BFRERERET04Gpo4QsiIiIiIiJqDIMsIiIiIiIiFzHIIiIiIiIichGDLCIiIiIiIhedfeTsnx13HYiIiIiIiB4YZz/52f/zuOtARERERET0wDhzyfMkl3AnIiIiIiJyCedkERERERERuYhBFhERERERkYsYZBEREREREbmIQRYREREREZGLGGQRERERERG5iEEWERERERGRixhkERERERERuYhBFkaR2CxgTWpyN0lGqXiI/U6oqFzAVmL0uKtxvCQZpc04xOOuBxERERGdam0IsiSsFQsomX6snXk1yKlst3Vyo7J1Xz2osb9u396wUBD9SGM5dsTTPKoWdfDFRAYl+aBGkTDck8fNyKrLpTeuup5G8CsmMo7XeisxCoTi2HLYprdl9b4yojXqEB3yIZecgmyrQ/U92wAtCK9XHhERERE9mNqUyVKQmu2Gx9sNz2waGFkwBUsLCO6tqNu83VjeC2BR62yLiQzCMLZ5vN24ogVDc6JxPAV5LNu2Nyp6NQDspEwd6wbFxEOVdxKJiTH4sxuYO+6K1CBHhrXrv4Kc6V4aiKwCySkM6PdOFlDWZ9T3DpqCpazp/sr6EHYKZkNxjPfkkalcTwlrxQV0JWeQUpqrr5jIoBTaxfRS/iinTURERESnVPuHCyZT2FaAjoujlY7tsmhEKnOvpqH0DCEKwH9eaHFlnDI49sybORNh35ZBImTsac+aGNkPbT9TpiYq69kWbdukDxACWNT3N2d1bNkaS7bOnsnR99NeXxwRgJ6JGllEABhFsA9IvWqLFmuUKSYy2ErE1TpvxhHVzlk/blQuYE0yt9PJyuTMbeQB4QL8ttfFQC+wfsMUaMZw5ZBBtBwZtgZ5RERERPRQaX+QFQqiX1CwnV4FLl+AoOwiZ96eLGMfArpCwJy4gpwWILRivpCYGEOHpWMN6J1rPfMxvS5gvFK2eVt1hsPIuKhZl/2Ra1qAEcMVr3ouaxIASUa4M43pwSnI+jGX8oCSxrS+fyXwlLA2fwE3TcfFpBG4RK8GsL9k1Leyn5bhmV5XLJmcAfuQQOkagnu3EElaXqxbpjDSi/LsCnJCAOHztzC9rkA4b4Qt/skxlGeNzNF4o9fOFAyWigsItiDGjg75gKqsnYTwiHKswyWJiIiI6MHRpiBLQHBe6zzP92J7dtjWqa9FD2pmsN234PJCExLCI1CDPQvrHLHFEcESQNQ/pGwKEibg14LFyrnMptExWUBpElhuNNMhDcEPH8I1jpu7r8A/WWhg3pWTUSRCPuQ2bOmaA8pEVg/KlOoMGABl/aXK9Z3byDfeflnz0NDmh+nVZArewlgxBbCqkz5ckoiIiIhOl/bPyfKaAqw7u1DsQ7dCXeiAgrIlCFtFZFDN9vhDLi0OIQ3Bn7VncAAx8RyCMDJK0+uN9vQlrE36kFvqNs0fcqAoUCzBVwOy1nlp5jasZM82hhwXDqmr3qIfdco8dcznItpPtsZwSSIiIiKiQzreJdyTKWwr5uFko0hIAdvcGIN40a3xY6NIhATHjrX/vADslbUsk4TwSINl6sHhHa2uiTHbvB8Ja/O92I4NY2BJQVCyBUNOAaf+uj7MsJ6YqAZ2tmPI9xSgs8sx8IpeDWA/6ZBRa7TMA9XIlJ0kjsMlG965MjeNy74TERERke6Y/07WKiKDK9gfWTDm4eytaPOGbEu7FwtY7LutzWM6IukagriNlEPHWl14Qx9eNobyeoMrxCWncDNrDItcPH/bNNxNwlpxAh36MLqYqK6iaF4UIjmFm1nTED19+F9yCgNLeXVIYNUy9/Y2mgCWRGuAGruBFIwFNSpz26pW07OeS+0yDyaYrmf/zswJXoGxXhCot606N0w/p4YCT33Y6KQP0IddMhAjIiIiemicueR58sPjrkR7jSKxuYCu5FGXX5ewVhxDueH5ZSdLVC5g/P5M9UIYJ/S4LSHJ6lLrXAmQiIiIiFx09rgr0H6riAy6EABIQ/BDQeYUBliA+nfGHvqFHmIiPCc2y0ZEREREp9VDGGQdgSRrQ8AAdTGPYQYqRERERERk8RAOFyQiIiIiImqdY174goiIiIiI6MHCIIuIiIiIiMhFDLKIiIiIiIhcxCCLiIiIiIjIRQyyiIiIiIiIXMQgi4iIiIiIyEUMsoiIiIiIiFzEIIuIiIiIiMhFDLKIiIiIiIhcxCCLiIiIiIjIRQyyXDeKxKaM6IHvKWBNsr0sydhKjLauakRERERE1HLtC7IkGaVi4cQEEWIig5Jsj3KOQg2cthJ+YG8XSGRQ2oxDdHprKIh+pLEc0/4vySgV1cBs/54fa0WHAIyIiIiIiE6FtgVZ0SEBqaU00Bd0DjxOvVVEBrvxIsYQ7AlgHC/BMzgF2eGd0asBYCdlbIuJ8Hg3MDzpg39yCBlvN67EHHYkIiIiIqITr01BloThzttIxVLYRi+CIftmNcul/1iyOKE4tkzbLJkw2zZjPwlrRRlR83H1rJW2z+KIAPRMOB9Xy0rVzEQ5Uve5jltIZdO4iecq2amqtujJ42Zk1Xb+Q8gs5ZFb2sDwCcr4ERERERFRc9oTZElD6NhJQcYqUjtAf8AUQEgySpMCUrPd8HjVn0oWJxTH1nwA+0vGtoFKcCJhbf4Cbnr1bSvApDmo8SEc2sW0ti3XM4ZECEByCgPebkyvK0B2xeG4h6VmsgYiOaDzAhAZhscrYs72LjExho71G9bXY2LlvR0Xc7jiSn2IiIiIiOg4nG19EaNIhHzYT6pBg5y+jetSECJWIQOIDvmgrM8gkqzeUwz0QsiuYMBp6Jw0BD988BcLCFdeVFAOAUiq/07F9OF6MWSyExi+3GidVxEZPGyQU29fCeERYHu2xvaYiIFDlkpERERERCdD64OsUBD9AiBMFlCa1F9UEAwBskNg1ZTsCjziKZq8JA3Bn72FK0c9byIiIiIiOrFaPlxQz0Z5vMaQv+l1Y8jg3EYewsg1xyXP5fRtKPowP7s7u1B6JhpbhS8Ux3hPHhlTPCbfU4DOrhpzrg4zJ+sgo0iEBKRePUVBIRERERERNa3FQdYogn0CchvWwEK+pxiBVUzE9LqAsNMCFskpDCwpCM47LHyRnMLAUh7+SWObNSgSjP3me7E9a5sfFbuBFAJYdFz4ogWkawjiNlLMYhERERERPdDOXPI8+eFxV8J9EtaKYyjPDjvO9Wq/USQ2F9CV5NLsREREREQPujYsfEFHW0iDiIiIiIhOk7b9MWIiIiIiIqKHwQM6XJCIiIiIiOh4MJNFRERERETkIgZZRERERERELmKQRURERERE5CIGWURERERERC5ikEVEREREROQiBllEREREREQuYpBFRERERETkIgZZRERERERELmKQRURERERE5CIGWURERERERC5ikHXahOLYKsqIVr1WwFZi9Lhq5R5JRqlYwJp0DGU7te1BtPqqP9q+2vUoFQsobcYhtqa2ronKD8i9Q0RERHRCtC/I0jqjJ6UzJyYyKMnN9uRHkdgsmDrVp6MTTa0iYW1SQGq2Gx5vNzxeEXMAkJzCgLcbnqX8IY6p3mPHEmQSERERkSvOtqug6JCA1FIa/aEgRKxCblfBLZBb6saV2HHXwiQ5hYHkcVfCJTERnpPUtvWEutABBZkHpe2JiIiIyBVtymRJGO68jVQshW30Ihiyb5Yt2SHLU3zz0Ct7Jsy2zdhPwlpRRtR8XD1rpe2zOCIAPRPOxz3kOa4VZSQSmdrHrHOeUblQPezM6TznAxDgvJ89+xGVC1hL1B66Zi2zgFIxg4Tp2oiJTNVrB3PI9unnYzt/axuZ97OXWed6HlWdtlXLdairvs98AAJ8CDd5D9nbXb9uansvICgA/knntrDs62IWdf+e33SupvsvFMfWZhzRevc1EREREVm0J8iShtCxk4KMVaR2gP6AqZMmyShZhlyZskShOLbmA9hfMrYNRFb1HbE2fwE3vfq2FWDSHJz4EA7tYlrblusZUzur2lCu6XUFyK44HPdgRgfY3tH1Idh3Wy1zNg2MXDPqU+c8o3IBYRh1mV4XENaPG4pja74X2/p+s2koprrMid3weGeQMr9oruuIvu8MUgggbOrQhzvTWvuo++eWhhE5YlYmKi8guLdSuSY5KEjNasPoYmLlHD2zaSjZFVO7ryIyqO/jpMb1PIq6bTuKxOYYypXrNYPtvucs95D6/jyWm7yH1GtmlNkRUq+1HBk2XQv9PcY1ERMZjN+fMe6TnV5cdyng8U8a57qc9WHcfFwhgHG8VKmv5b4mIiIioiptGC44ikTIh/2k2gGV07dxXTKGDEaHfFDWZxw792KgF0J2BQNOw8ekIfjhg79YQLjyooJyCEBS/XcqNqUNS4whk53A8OUG67upZhNUeSzrc200tYcLmspMlrE/34surT61z3MUXZ0KUjHjgHL6Nq6PXIAfAAK9ELK3Dh38KOsvafuuory3gP6LowCcg4EO2zY5MuzCsE4BXVXtLmFNAl4cbGZc4GGvZ21ivbYNBdEvCBDmCyjNGy/njlgmoAZLiyPmnFkefuCAth5FsE+AICygVFwwXs76Uet6NsO4T4C5jTzCQ+bj5nFTDyAfpKGpRERERC3S+iArFES/AAiTBZQm9RcVBEOAfNTOWnYFHtHtCTyriAwevdN60qmBXACLxQIWAbUtm8jm1TK3kUd4cgKl4gQAQFmfsQXJWoYo5kYA12JKGtODU+7WMxTH9REgNdutBjWhOLbmLzRaIaRmj55tJCIiIqLWavlwQT0bVRke5e3G9LoxZHBuIw+hxvAjOX0bSq1hYXd2ofRMNLYKWyiO8Z48MqbOvnxPATq72rYyYO3zXEV5T0DwqnEi0asBCNkNzOn17BnS9pOwVjVv6HCiV63DMJ2C1ebnZI0iEbIOibQPoRMTz6ErecRAweF6VuZPNTFPqW7bJsvYFwKuDceruHwBAhSUtfOPXrVfz1WU9/Ssov11AUGp3vnp89qaXIbefoyQD7mN07L6CBEREdHJ0+IgSx3iZO+wyfcUI+CIieocJKcFIZJTGFhSEJx3WHwgOYWBpXyd+VGCsd98L7ZnrUP+ELuBFNRMTrOT+WuXWUed85wTZ5DqNBbhCHemMa0HPTERy1l9cYUxlGfNc5b0TrV1sYRGAs+5V9PoMJ+HK4tJrCKStF4vS9tKMhZHBGv7VcrUF5mYgL9y7cwB3gHXEzmUFQCCNsyyEXXbNoYrs2lgZKH2giS16At0TPoAQbvH9PskdgMpxVgsY/x+umoO2tyr5nKNNpgTZyz3bPW1VgM0QFCHqTZBqJS3gP6dmZO1eiYRERHRKXPmkufJD4+7Eu6TsFYcQ5lDq2qKygWM358xMk2VRSCO0mbqfLaupGnOmiSjNImqeW3Naex6iokMFvtuuz/E7zRxpb2JiIiI6Cja98eI6QQZRVen7SXbMLbD8aPLNpZRvCgAym6NFQNdoi/L/1AHWFomkAEWERER0bFr2x8jppNkFZFYEFvz5pXq1EUVjtY5j+HK0hBKlkVO8lj2tjjw4Yp3AGK44uUYPyIiIqKT4AEdLkhERERERHQ8OFyQiIiIiIjIRQyyiIiIiIiIXMQgi4iIiIiIyEUMsoiIiIiIiFzEIIuIiIiIiMhFDLKIiIiIiIhcxCCLiIiIiIjIRQyyiIiIiIiIXMQgi4iIiIiIyEUMsoiIiIiIiFzEIIvaRkxkUJKl465GgySsFTNIhI67HkRERER02rQvyJJklIoFbCVG21ZkPYft8Eflk3MOD5uoXECpaPysSYAaDBVQ2oxD1N8oydb/nyra+VjOsRGjSGya2ufUBLPOxETGOJdmrqX2PXOi2qFGnSznWCygVJQRbUN1DtW29nNo+v50m8NDENvn3vn7orUOfd8C1jY+td9fRESka1uQFR0SkFpKA31B/vKgJqkBRLgzjWlvNzzaz5WYvl2BggDCJ6A/fTSjSGxOAEv6Oa4Ak41l06LyAoJ7K5W2WcbE6X0YIMlY7LtdudbTO71YbChYkrA2CSxX7pEZpDrHjjUbKSYyKFnq1A2PGDPekDVds6wP462+Zodt25ho1F+7N3NQUL7T2uoelpjIIIwVS52vxA7e70gOfd863CeDU5BbXF0iImqtNgVZEoY7byMVS2EbvQjaOz22p6SWJ46hOLZM2ywdR9s2Yz8Ja0UZUfNx9V922j6LIwLQM+F83EOyP5k2HzMqF7CWMNXX9qTS/tS1pD+lDcWxZX7Cbft/vTKrshu2p+XWfaufoqvbmxsyV/103v4EuctUpwaf3IeC6BfyWK7T8dhOptEx1GyUZc0aOT5BDsh17hFtf4eOVFU7NNLZkq4hiDSW9c6gNAQ/BPQHDro3R9HVqSD1qtGLnNvIQzjvP7hMjeX+M7WBmMhgKxE3tVMz94m9fRu5l0aRCPmQS+rXehTBPgHoGWrgXsmhrPgQ1ttauoagoKCcPHBH03k4nGcojq3NOBJyrXu6FgnhEQG5JRFzjVUB+/dWHep0EtrWSkyMwZ+9hcixtW19/vNCg3U6CW07imAfkJpt/D4hIqKTrz1BljSEjp0UZKwitQNrp1GSUZoUkJp1eOIYimNrPoD9JWPbQETvhEhYm7+Am17zU39zB9CHcGhXe6q4glyP9kQ7OYUBbzem1xXLU2TjuIcnR4YtT3r3R65ZfsH6R3qxPas9YTdlXsRExpSlmUFKAXJLww11YOqVac1uqE+eK7/IJRmL528Z+y7B6Jy61QZLeSjrM9YnyD0BdCWbfHJ/+QIEZRe5eu+5k8J201mLGK6Ysx6KPZATEOzT7qHZNGC7nrWIiYz1ifa6Ymx0HHalduLEiwKwV4asHaMU2sXyutJAsLSK8p45GFM7fOjsaihrLCYyGL8/U7lu0zu9uG66LsJIoJJdazzbImGtaM3KGdfPKfjXA1E/ugQ9QyJhrbiAruQKchDQdeC1XUVkUM3ilYoFlEK7mPY22HE96PMgBBDUMyNLefhDDQznCnWhA3lkYvq5OATypgc9Yaw0mG05jra1lh8egSWor//2FrTtAebEFeS0tm3uAdoxtG0oiH5BAQIZ2zGJiOg0O9v6ItQO335SDWLk9G1cl4IQsQoZQHTIB2V9xjGgEAO9ELIrGHD6XS4NwQ8f/MUCwpUXFZRDAJLqv1MxvcMcQyY7geHLDdZ3cwHByoPQPJab6KiVJn2mF8z1AZT1l7TzXEV5bwH9F0cBOAd3HXW2NVOmlYAurQ2iQz6gx4dSccK06y5EoBJkyJHhww9ZCcWxNbSBAdF2DlmjI5m7ryB83g/9PMVERs0wanJLasAtXhQA7B5Q4CoiyWsoXZWAjearG5WfA2LDtutsuoeSZezP96odpkrbxnDFa7851SfYxhNtm2TcUpcAACAASURBVJgIT42+qRjQ66J2uD2DMYiJTEP1nxNXMFxcQKm4oNZ7PQ+cLzdw/dT6CoK+ryZrXJd61wyocZ9IQ/AraUw7nusqIoO17m2tc3k5jq2i+lAiklSHAR5M++zurcDjjSEqF7BYlOFv4PN78Ochj2V9mN+dXSjCBfj1bbbPoLI+4/DQRrtXJBklc6c7u1IZPhiVCyjJsAwnPDlta9CzWFcazGK1vm2d6J9N9Z4oFRcq3ye6k9W2PvRjBh7vaqXOa1Ks9UMciYioZVofZIWC6BcAYbKAUuUXjoJgCJAb/CVdk6mD4p56v0jrkbA26TP9IpewVhxraE85fRvXRwJYLBawCKjn1VBHon6Zcxt5hCcnKp0bZX3GErDaOx3u0bOMU03tVSuok+8pWBwxdbxqid1AarOxbJOZmsl5CQNHvR8bURUUA4CC1OwwIvcULI5MYHx9pnL9/ecFKPfr5vA01oBPTGTQ39B+pvLbcf4Aqh9kaLIr8Ig5lJUJBCcvYNmrBb2hLnRAQeag+lWGlartMCfOoGtzAcMSgAbu80N/HmoFzo6BeW1zG3mEQ12WBx3Na1Hb6kJxXB8BUrPNNZTrbVvLnv3BgvZ9LskoheIQY0eZ69TKts3jZuU7/+CHcEREdPK1fLigno0yT0CeXjeGDM5t5CHUGIYlp29D6akxBOzOLpSeicbG74fiGO/Rh+1ox76nNDycqiHaL1R9IriYGEOjM2KiV61DIqsDR33IySgSUgCV3/F1yxxFImQdhml+Apy7r8A/WX9O1GHmZAFAVB5D2c35BbEbSJnn2tS0itSOgPGQvRekD/NxON9QHNfP3zrkcFHtuJZ5XKso7wF+fX6YJFuyc9ULCHTD49UCnNgGclCwnV6t1G28x/R/9YDVqynaSTIWRxRTp02lz4uxfmbUoYZB6QhDtLQhkJbj3tmFIujzL9UFPYx7Ux3WV9UOYgzqNVSA7Ebl/oleDUAw/b/2uQCwDM/yo6tqao5z+zXyeWheDJls420bHfJVBwknqm3199eai9XOts2hrFQPka31QELNhture0LaNpnCtuJTHwaoFcNw1eeeiIhOmxYHWdrQqQ1r0CDfU4zAKiZiel1A2GmhhOQUBpYUBOcdFnZITmFgKQ//ZK1FCwRjv/lebNs7/bEbSEHNHjU7bl8YWaieFJ2cws2sUebi+dtIKQceCgAw92oaHZNO4/ztx9XH+cNhm73MVUSS1rYzn6ccGcZy1mdpd7cW/wj3CM7X7NBWERmcQapzwnIuTp1AOXIL+4K9Q6UGPqiaHyFhbT4Aocd83GY6g9pxBetiLub5IKVJILXe4I2AGK7M3ka/5b5tMMNknutVYy6SfE+thzoU1VzfGctnoenFB+7sQoEpsASA5BReXEflvu3fSdefU2euZ2TYmFelzVVqKGNd9X0xgQ77nEDkUFYAaEPSLGW24PMwJ3Zjec/UtpO2QKrngPM8KW0LVIL+2nOx2tm2q4gMrmC/8l2sDhNVH5ZUz51a7LuNafvCOSembVcRiZl/B0wADc7JJSKik+vMJc+THx53JdynDpsrt3UI1OFF5QLG75vmGoTi2Gqmg+1IHdrSlTQN05FkbZngh3AVqxade2WRizorH4qJjDrx3/Whrc0yJvW7O0y0keOenM9kI9fs5GDbts7palsiIjpd2vfHiKmGUXR12l66fAECGl962ln1UCnxogActErfA0cbwuR6gKUed3FEqbu0/EmhLtHufoClDn9yyhidQPqfbzglQQDbtnVOVdsSEdGp1IbVBam+VURiQWzNm1d3UxciOFpAEMOVpSGULAuO5LHsPfkdIHc5rQB4ko/bGnNid0uyl0dagbLdklPtWdzEJWzb1jlVbUtERKfSAzpckIiIiIiI6HhwuCAREREREZGLGGQRERERERG5iEEWERERERGRixhkERERERERuYhBFhERERERkYsYZBEREREREbmIQRYREREREZGLGGQRERERERG5iEEWERERERGRixhkERERERERuYhB1mFIMkrFAtak467IKBKbJ6EeDQrFsVUsoFQsoLQZh+j0nhPTtkREREREh9O2ICsqa51r7edEd6IluXYQQIeXnMKAtxuepfxx14SIiIiIqGXOtr6IUSQ2FxBEGtPeKcitL7D1YiI8seOuxAOKbUtEREREp1zrM1mhIPqFPJYHawVY6pC3ksMwMjGRwVYijrVKBkxGtHLcOLY240jItbJjkmm/ArYSo9ZitWFp1n21fSZ9gBDAor5d1g9srmsGiZD9XE3D4WxlRuUC1hL1hstpxz5CBk1MZBzLdWpb8/trtW3UtL2q/WqxtUHj51O7bcVEpuo4Ubnx8yQiIiIiaqfWB1mXL0BQdpFz3Khmufp3ZuDxdsPj7cbyXgCLshEtCSMBYEnblvVh3NzZFwIIYkXddykPf0jvXI8isTmG8my3dtwZbPc9Z3TcJRmlSQGpyvZuXIkBQAxX9OFsShrT2jaPqKdWVhEZ7IbHu1J9PqE4tuZ7sV055gr2RxYsgZ9/RN8+gxQCCLs4ZFJMZLDYdxvT3m4MRFYrr43fN9p2eqcX1/X2k2Qsnr9V2eZZAsKmdocQQFjfPpsGRq4ZQVg9+pBA0/Vs7Dxrt60cuYWc0ItgJfCSMNyjYDvdwHkSEREREbVZy4Ms8aJQZ6sfXUIeN7WgAADmNvJAZ5eRiciuaAEQkLuvQDjvN+2fx7IeAN3ZhSJcgB/QsmcCgvN6dmMBQUFA12X1rdEhH5T1lxBJunKKqssXIGRvmY4ZQyYLdFw0OvtGmaso71m3VYKMmhm/2vyTBTVgsuw7imCfAGFkoZLhWRwRKu0XHfIBPRNG9mfSZ213c9smU9hWBHSZg9SaWUJrBjHcYz/Pw4hheR3oD+gB4hD8lbauf55ERERERO3W8jlZ8j0FiyNq8NPW+VhKGtOHCFhOo9zSDMqhBWwlcpUslkpBana4ZjCZW+quBLBNqTNvKipPwJ9dqWT/onIB44cowk5O38Z1KQgRq/AP+ZDbMA8IrH+eRERERETt1PrhgrEbSCk+61C0ihzKinkI4CgSIR+UndTRgqNkGftCoOaQsbmNPIR6w9/MWbFG3dmF0jNmDEkMxTFuGtJ2sKPMyVpFZNA+PHEV5T0BQcn5eLn7CvyTcmNDAKVrCOI2UgcGMaPo6gSU+9qAv1Ac4z0NnsJBklO4udeLYEjCcGcay5Ugr/55EhERERG1WxuWcF9FZHAGqc4JVC80YQQHlWF9eyu2bMxhxHBlNg2YhpBZFnaIiZheFxCutaR8cgo3sz5jeyVA1IfCTcAPfTiitkhDcgoDS4oxRHE+gP2ldmZX1HPumDTqOyeqc78WHc5Tjgxj2XyOVcP+TNsmUWfhErNVRJJ5Y+je/AVsryvGZn2YoXlhkUpQWadtNXMbCoLzE0DSWpd650lERERE1G5nLnme/PC4K0EnTCiOrfkLuOkVMXfcdSEiIiIiOmXa9seIiYiIiIiIHgYMsoiIiIiIiFzE4YJEREREREQuYiaLiIiIiIjIRQyyiIiIiIiIXMQgi4iIiIiIyEUMsoiIiIiIiFzEIIuIiIiIiMhFDLKIiIiIiIhcxCCLiIiIiIjIRQyyiIiIiIiIXMQgi4iIiIiIyEUMsoiIiIiIiFzEIOsBFpUL2EqMHnc1iIiIiIgeKm0LsqJyAaWi8bMmuXFUCWvFDBIhN45lPqyM0mYcYpO7iYkMSrIrJ9aEUSQ23WrP5oiJjMO1lLBWNF9rGdH2V42IiIiI6Ni0IchSg4BwZxrT3m54tJ8rsdaXTC0kyVjsU5BTrC9H5QlgybjO0+sCxplNIyIiIqKHSOuDrFAQ/UIey4NTkB3foAZhlcyHKYMkJjLYSsRNmREjK6Jmxibgh4DgvFPWxJpRMQ+bi8oFrCXi2KoqU9tn0gcIASzq213KTlmyeQ2ep1ot2ZIF1M9HzSQtICgA/kl9mz2zFzSOW5Wd09q+6aydhLVJAanYDZRtW3L3Ffgn9fpLCI8I2L+32tTRiYiIiIhOs9YHWZcvQFB2kXPcOIrE5gL6d2YqmY/lvQAWTUGNMBKoZEaWs75KVmRO7IbHu4IcFKRm9cyJiLnKccdQrrw+g+2+5yzBh3+kF9uz6rYUAghLABDDFW83PEt5QDFl3sSjp93ERAbj943znN7pxXVT4FfrPBGKY2tSqJzj9LoCZFcwEFmFHBlW668AuUr2aBiRJEzH7dXawXyeRxOVJ9Cx/pKlHJ0cGYZnCQgXCygV1WvArCURERERPUxaHmSJF4U6W/3oEvK4GTEyHXMbeaCzy8isZFcqnfTcfQXCef/BhYaC6BfMGa4FBAUBXZeNtyiVIGEV5T2g42JjQ9r0eUjNzS0bRbBPgDCyUNlvcUSwnksz52lunwPUP89VRAa74amZZXQgyQhDDfKciIkMSpPAsrcbniUFwfnjmS9GRERERHRczra6APmegsWRC/ADjXfk3aCkMd1M8NAgOTJ8yGMqSM0OO2Z/6kqmsC0F1IBxHgDyWPa6f16NGUUi5AMEH0rFCePlyQJKoTSmB1MI9gnILQ2rGcWYiOmLGSwOSQCYziIiIiKih0PrhwvGbiCl+BB2nNeUQ1kxDY3TOvHKTqrBICKHsmLNUAEAkmXsCwHLcLym3NmFIqiBoTtWUd4TEJSaX7EQ0jUE91YqwwyNIZHmYzeeibNqdk6WlvnyGsMwK0MVTQGtuS7+8/UymURERERED542rC64isjgDFKdEw7D7FYRGVzBfmUY3QKCe7WHojkeO5k3LfqgL7gQw5XZNGAantfUUuLJKdzM+rR5RU0ufNHjdJ7AnKjOiVpsdqhh7EZV29nPZe5V87m2YEn7htmvp7aqpAtz2oiIiIiIToszlzxPfnjclaA6JBml0K5p6KOxWEjjwSgREREREbVL2/4YMR1O9cIhfnQJ4LLoREREREQnFDNZJ56auQqaYi1lnVksIiIiIqKTikEWERERERGRizhckIiIiIiIyEUMsoiIiIiIiFzEIIuIiIiIiMhFDLKIiIiIiIhcxCCLiIiIiIjIRQyyiIiIiIiIXMQgi4iIiIiIyEUMsoiIiIiIiFzEIIuIiIiIiMhFDLKIiIiIiIhcxCCL3CXJKBUL6o8sOb4lKhdQKsqItrFarS1zFInNAtacT/f0MF+7Nl8ft6jXWf05idcjKhewlRhtfsdQHFutvibtKIOIiOgh0bYgy9z5ca8DJGGtmEEi5MaxzIeVUdqMQ2xiFzGRsZyf/nOoDtVpFhPh8XZjel1pa7FiIlMzqGu5UBD9SGM5djzFu0PC2qSA1Gw3PN5ueLwi5o67SocwJ3bD451Bqr23H7XMYR5gOOxjCiDtv4vsv5OqtzcaeKrlGvu14HcTERGdGmdbX8QoEpsLCCKNae8U5NYXeCzkyLB2bhLWimMozw4jkjzmSp1Qc2J32zvwrSwzejUA7Myc7ns71IUOKMjwnqUHXOW7IBTH1vwF3HR4oKCsz2AgstrUccXEc+jfmYFH30+SUboqAclT/fSFiIgOqfWZrFAQ/UIey4O1Aizb0z9TBklMZLCViGPN4Ymi+rRxAn4ICM47PXGUTPtZM0pRuYC1RBxbVWVq+0z6ACGAxQOGvTXeBnFs2Z5qiolMpVz1PCVTO9iegIZMdXXKAmrDvJp72mttH0vbheLY2owjasrOGe0nYa0oI9rAsEDndqi+zob694JjhlA75uKIAPRM1Nxes0zLEDlzG6rnmXBsA2s7DvfkcbPSIdPOoaruBz8Nj8oO11C7FqIkO7TzKBKbGSRe0N7TyPHs9PaZD0CAD+Eanxfnp/pa+VJ1G1s+u6Z7qZHMrj0raf1/7TIbYTmXBr9rjHKd97V/Pu3naC4z3ONwrrXKNB93PgDBfjKH+twfXN8uU53Mx675GdTrIks1h2ta76HGvt/U8hYQFAD/5MnPDsn3FAgjz2n1G0Ui5INyP3fc1SIiomPS+iDr8gUIyi6cf9WoWa7+nRltiFI3lvcCWDR1sISRALCkbcv6MK79YleHBa0gB8VhiNMoEptjKFden8F233OWX87+kV5sz2pDixBAWAKAGK54u+FZygNKGtNanTziEZ9EJqdwMyugP6B3SkYR7BOQSxqBpzAyga5ktzbUDghe1dtAwtr8BdzU6+JdASbdmDehnatXL1OotK1aoQDC52+p22fTwMg1U5k+hEO7WvusINcz1ljHJzmFAb19q2gZz72VSp08psBcjgwbr3tXsK/XRzvm9LoCZI19K0+h65UpyShNAsv6cWfT6Jg0d+J8CPbdVs+zqg1UYmIMHes3TE/CVxEZVO+p64lRIBTH9REFyw0Mv8vdV9BxcRSVQBZQPz97Zch3dqF0dkGEOXjyo0tQUH6+jH3hAvzQg4VRAKPo6lRQvnNAoXr7zKahIF9pC739onIBYaxY7pOwJagREAwBL3rtnyVAGOlFeXYFOe1eml5XIJz3H1ChRtQusx4xkcH4feO7ZnqnV71G+lFrfNfUvTdDcWzN698l+r25YBl6Zm6/5aypQpKMRf0z5u2GZwkI69999uPOpuHKCMhQHFvzAewvdVd/VgAAPgT1Oi3l4Q8Z17rmZ1DXM4Hhje7qfUNxjHeavk+95ix/7e83tTx16Gduyb6vfWieSw/ENMLIgnNAXU9MhGf2NvrnCygVF9CVtLctERE9TFoeZIkXq56/mvjRJZizAMDcRh7QOpMAgOwKrmgxTu5+g520UBD9gjnDtYCgIKDrsvEWZf0l7Zf1Ksp70Dq3DZyP7Wluo0+R515NA31BrdPhMIfHdJ5y+nalQw1pCH5ThkHP3nWZgxptHtSVpmJBaydlcUSwtW0ey3pwmUxhWzGXqSAV0wOgGDJZa9seip7xrBXQWjJODm1wCOJFAYo5QNLPs3IupvNMlrFfVaaE8AiwnbZ3pFYRGVQ726X5XmzPWgOsWveQfE+7v0NdKGeBYUmr4/2cWr5wAX6Mout+HhiS1CF+yi5yyKGsXR8/FOyfD0LUA7Bk/TLrUwO11KvGNZHTt6FoAZ3OeFiwisig6T7M3tI+Y9Zj6G1nyaQ2OQeyZpl1ziXYJ1g6z1X3fK3vmnr35uULECrnCaifB1SC5eEep3NXRYd8luxradJX+e4TA7224zo4xOdePe5KnX1M53ln13qtD/oMKqbvtJhoBKLJMvaFABadslCNfL85Uq+7EfS59EBMP5X1meqAWq1w7ftWkrXPu/7A5iGck0tERBUtn5Ml31OwOKL+om7rnBUljemaQxQPz5h71aRkCtvSgvrE/WIvsPNS48fJrrjWedCJiecs8+TERAaL510twkUS1iZ9yC3pHUp13tuxk4bgz97ClZodYQWKUh2A1ryH7uxCGQLEwAXg1Q3gqgQ/BOxvqEFcWRkCQkF04QYyuIboZUDY24CMVfj3nkMXJAyf38Dy/SEEJWgB2AFlHpsYrnjbPVdFQeqEzZU07mmrZgLO9jjKZ1C/1tqDnXnbeR/q+03LLtqf4WVX4BFrDNGrOaKiGbXv2+iQD8r6jHZ/TWHgsoxSKAgRqyfss0dERO3Q+uGCsRtIKT5jGIxFDmXFNiwn5IOyk2rwl5L2BN+eRdGenF4/7FNE+xNcV6wikszDPyQjPKJYsnd26kIKWhvc2YXSM1E/83CIuRn+8wKwV64s1hEeqZNxlK4hiNtIOXVOQ3GM9+SROWp/OZnCtuVeMJehLsqgD30TE2NV10a+p1gzoA1Q51CYhjxJ1xAUGj2XUSRCQo0sxSgSmxPA0jAGYml0NDq8M1nGfucQwud3kUrmUO4cwnDlvFdR3hMwfPUCyulV5O4LGB5CZc5H7j7QdXUI2IhBvgf0D10wXd/DUss0hq6q96aQ3Wj9wiX6tQzFcb3evdkw7Vyk5jJmAOrfm3d2oZiHy4biGO9RtOym+v2kDxMWExnLnKzcfQX+GveGfE8Beoa0bRLWnOZkaXOZmsmWyOnb1vo2qoHP4MHU7NP0umKMHDjw+63WSIN6mSx1H/+Q7b498ufhYObMaP1RHERE9KBrwxLu2hyVzgmH4UqmYVX6sL69lSbGsWuBS2VStN5hieHKbBowj6tv5u+/JKdwM2sawuLW0uCxDeR6fPA7dVJNw4bCWLHOKVoyn2PzQ6uczL2ahlIpcwzldfucJdP5T8K2cIlpKKZtOJw+LM2yEIXefvpwI/PCIpVzsd8Lpm3anDa9zMXzt6uX6I7dQArGYiWVjme9MmOiOseocp4CUrMNLl1eM/A05u9cial1f3FdQLjRCfuCD36UIWMVqR0B/h5jyB8gwN8DlJNqZ7mjx4f9e8Znxd8jqJ3g2Ab2e3yAC5Pu50TrZzfcmca0y1lVOzlyCzn9Ws1fwE3HOXxO9CGw1sUS9A78nDhjuUcafzBR/94cWFJMn4cA9peGK0ORIzHje2hRm5dmnOcwls3fM+b7Niaato2pc9vs1UqWsQ9A0IchN8Je30aDtEY+g7XYFpdZ7LuNF5v4fpt71fxd3tjn6DjuW3uZiyNKnQWfiIjoQXfmkufJD4+7Eg8PCWvFCcA2REgdqnfL9SGBh1ZnaWMuUQ/ogVRXstl5cERuMhYO4gILREREJ0sb/k4W6cTEGPxKGtPsmJ9yq4gMslNLx0iS1exsdsX4u0xERER0YjDIage9Q4Q8lh/gP8hMRG0SE+HhwxoiIqITi8MFiYiIiIiIXNSGhS+IiIiIiIgeHgyyiIiIiIiIXMQgi4iIiIiIyEUMsoiIiIiIiFzEIIuIiIiIiMhFDLKIiIiIiIhcxCCLiIiIiIjIRQyyiIiIiIiIXMQgi4iIiIiIyEUMsoiIiIiIiFzEIMsuFMdWsYBSsYDSZhzicZcZimOrKCPajnoQEREREdGRtT7IkuSqwCEqF7CVGHXj4FgrZpAIuXAoXXIKA95ueJbyLh70BJYJOF6bhvfTg8JiASVZsmyOyrW2jSKxadpmv3bmYNPt60pERERE1CbMZFGTJKxNAsvebni83fB4Z5DqHKsERGIigzBWtG3dWMZEJaAWE8+hf2emss2zpCB4VTKOO9+L7Vlt2+xt9M8zg0dEREREp88JCLJs2Q2HrJdT5kN9fQJ+CAjO69ttnXIt47JmTbQcjS2LYz+2tb6m+liyNM0PRexKZJzLtB3XmiG0Z470+khYKxZQmvQBQgCLNTJSYiLjkFHKoaz4ENbfK11DUFBQTqrHDY8AqVdjemNhuAcQ+oIQAcj3FAgjz2nHG0Ui5INyP6eVNQZ/9hYiSa3sQC8E+DDs5rUjIiIiImqD9gRZ5o58sYBwj75hFInNBUt2Y3kvgEW9Ax+KY7wzjelK1mS40gmfE7vh8a4gBwUpPfvhFTHXyvOQZJTMWZzZNDomrYFf2FJfU330IYGm8ww3HED4EDx/S8v+5OEPaQFaKI4tc/bHu4L9kQUjCJOuIbhnZJWM+sRwRR+eqJjqK8ZqVcBkFZFBNUNVKhZQCu1iWj9uqAsd0AKuUBxbxTGUl9JQhAvwA0BM1DJUBZSKC+hKdmMgsgoA8J8XKgFXVC5g8fwtLGeBjotuDCslIiIiImqf9gRZ5o68txvLWX2DH11CHje1jjYAzG3kgc4uNYhIlrEvBLB42Pk5MREebzeuNBI7NEC8KEBZv2EKnFLYVgR0XQbUrI2CVGwKsuPeWvbIFGg2HkDksawHQHd2jaDl8gUIpuwPEEPGHJjc2YXSM1Gd4WuQHBm2BLYqNTumDwlc3gtg0SmDOH8BN73DiNyxv64FhbNpdEzaM29+JDYLGL8/02DAR0RERER08pyA4YL1aBkX70uA5Dw877SIyhPwZ1ccAs0WqmTPNjDs1mISoSD6BSPomxNnkFK0YX3JMvbhQ9ic3bp8AYKyixyA6JAPyvpLatCWnMLAUr4ylDB3X4EwMmHKbo2iqxPYv7daqyZERERERCfSMQdZ6vye8Uo2Q5uns5OyZYPUIWrT64ot+5NDuZJJcuDynCx1TtE1I2sjXUNQyCMTA9QskmBayMFMDRj04XAIxTHe4/C2Zt3ZhdJjLDqhHlfBdtoemKjB6nLW1lbmrJgD5zlZACCgq/KaH12CUU4mC9P1q76ewnmjNPFiZUfI6dtQoLclbG1LRERERHR6nD3e4lcRGfRjrbiAUnFBfSm7Ao8+fFCS1cUZdEoa04Or1v2T11CaLKA0CQB5LB91XpalTB8WiwUsKmlMD05BjomYvpjBYrGAsFohpGaHK+XNiTPo2lxAqTihvaLXR6+nfp55pNYV9DdSZr26JqcwcFlGab6A0rz6Um6p21g8IpHB4ogRyCC7Ak/Muv/NqwWE9fPJrhw8TM+hTGV9BgMxexssGNu06+ncPto56settK0L15KIiIiI6BicueR58sPjrgQREREREdGD4oTPySIiIiIiIjpdGGQRERERERG5iEEWERERERGRixhkERERERERuYhBFhERERERkYsYZBEREREREbmIQRYREREREZGLGGQRERERERG5iEEWERERERGRixhkERERERERuYhBFhERERERkYsYZBEREREREbmIQRYREREREZGLTkWQFZULKBVlRJvdMRTHVrGArcRoK6plI2GtmEEi1IaiDmUUic0C1iTnrVHZ3E7qe0vFAkptO6d6ZZ70tiUiIiIiMrQnyNKCnZL2056g5+QRExmU5BpRjiSjtBmH2KrCQ0H0I43lmGPhGO7J42ZkVfv/KiKD3fB4V5BrVX2qHEeZwOEDOAlrpnva/hBATGSMbbbratlW9XmwHrdWUExEREREJ1cbgiwJa/MB7C91w+NVO9H7IwtNdR7nxG54vCLmmi06OYUBbzcGKsHDwyt6NQDspCA7bBMTY/BnN5pv34dYVJ4AKvd0N6bXBYzrwZIkY7HvNqb1bTu9WNSD61Ac103b1M/DNS1AG0Vi03zcFWCSGTwiIiKi06blQZbagV/By2bfFQAAHRVJREFUlUoGJYbldQX+Ia3TKckoyZI2JND29N6cAXPK8kiyJSNgzgo4Hk8TlQtYS9Q7tjZ07TCZpYBcnaHQzmNxRAB6JmzbtczFpA8QAljU62TqlG9txhE1ZT+qMoFaO9QOXO2ZKuu5BvuA1KuOKS5nB2UmbdfFqFf97M+BnNpWOwdjqGH1dTPfC+ahiOrrE/BDQHC+Rp1qtG3uvgL/pP5eCeERAfv3VtW6hHzIJae0gHYUwT4B6BlS35ssY18I4LpWfzExBr+yq2bvpGsImrON0hD8ENAfeDgzv0RERESnVcuDLP95Acp96wAw+Z4CdHYZHeGeCQxvaE/vl/Lwh7ROspaJ8izlqw8cimNrUkBqVs8kKEB2pZK1UrNfM0gpNeo10ovtWe09CCDsyrAsAcG+XTVLMZsG9AyFdh56HfXsh1rXGK7o56ikjQyHaAp6hADC52+pr5uP2yAxMYaO9RvOmSrpGoJ7txBJNniwUBxb83rbOWQmJRkl03XxeLstAfYVb43sz4FqtC1GkdhcQP/OTOW4y3sBS+ZovNPUrt7hyrmq98gKclBM9W0sYypHhuFZAsLFAkrFMZRn9fP0o0tQUL4DqEHlArqSK8hBQFdIb4MZbPctoFQsYPH8LXgG1YBMvCgAe2X134kMSqFdLK8rEM77G2wjIiIiIjoJTsbCF4rp6X1MrHQ6m2YO3A4qcv0lrbO9ivIe0HHR3NnX5gc1XQ8FqZi2T7KM/UrH+qjyWNaDrmQK24rtuDHRFsyYSQiPANtp5yxWIuRDbqOJLNblCxCy5qAshkzWaL/okM/Utg7lmTJOiyNCEwFErbb1o0uwZunmNvLGvaBljhYPu3BGjbYVExmUJoFlbzc8SwqC87Zs1+U4tizBl04NvNSgcAapzgnHzJsefLV3fhoRERERuaHlQVbufvWTePMT+0PTgg19mNfiiILlwwZnDzJpCP5sjUxV3cUw3CcmnkMQRlZper1GmtFVevbsJUByazEJdQhgbknLesVETFeGwOZQVgQEJy/gpp41C3WhAwrKSajXQ0njxcgq1GB+BTmhF8GQluHtmcD4/ZlKJtMpE0xEREREJ1vLgyw5fRtKz5iRRQjFcX2kyTlATqRrCO4ZQ+8OtTBGTUeYk1VH1TBJszu7UIQLODCvI11DELeRMgdNNedkjSIREmq2dfRqAPvJJgPTO7tV13O8R6lkyuY28hBqDGf0nzcH1+o8pqPLoaz4TMMO1eycUrXIh5qdnF5XbFlLNSjqulzj8HXmu5mP4z+vn8sqUjsKYFpIJHo1AMG8sIj5Ooe60KH/O7aBHIy2tLctEREREZ0OZ1teQnIKA5dllOYLKM2rL+WWuhubAyTJ6oIQAAAfFosFLCppTA9OQY7dQGpzAaXihGmHPJa9Iua0eTpBvd87WUBpUi3XeUhdm8RuIBVaUM8DgLI+Y6x8mJzCzasFhIsFhAF17lZlXpbPeB15LHsbDIy0gGzaMYsVx3hPHjcdIz4Ja8WJSiDgny+gNK8gNTuMyEHXMyZi+mIGi5X6Gu0+92oa4/MT2jVTkFrPw3++kTLrneQqIoN+rBUXUCouqC9lV+DR29VyD0Gd9za4at0/eQ0l7R4x7qEmy1TSmB5Ur5ccGYZfW1SjUh/9WtZoH/UcY7gy24WtSts2cv5EREREdNKcueR58sPjrsShSDJKoV014AJgXgDhgVqyPRTH1vwF3Gw6U6e2R1fSObCMygWM33/A2oqIiIiI6ARofSarRcSLAoBd0yt+dAnQltEmNdtSuy3mxG7+XSwiIiIiohY4tUGWHHkJwU1j6B2gDb87zuGARERERET00Du9wwWJiIiIiIhOoJPxd7KIiIiIiIgeEAyyiIiIiIiIXMQgi4iIiIiIyEUMsoiIiIiIiFzEIIuIiIiIiMhFDLKIiIiIiIhcxCCLiIiIiIjIRQyyiIiIiIiIXMQgi4iIiIiIyEUMsoiIiIiIiFx0OoKsUBxbxQJKxQJKxQwSoeOuUPOicgFbidHjrkZNdesnyShtxiGa3lvSrsea1L761SrzpLftcThcm4wisVmwXOtTLRTHVlFGVP+/JFfuoZLs8o2rfUe5dh/a6+4W83fpg3KdiYiITqA2BFkS1opGB7n5jvkoElIA+0vd8Hi74fEOI5JsVV2PkS2QsW3EWkuDSwnDPXncjKw6bo0O+ZBLTkHW/j8ndsPjnUFKaVV9qh1HmXrQ0XwgqQUrtR4M1HtoYA4EHIIBc7BZO1Cofz3b57Dtd5DGPg9ioBdYv4E5/YWYCI+3G9Prbb2JWuSQbZucwoC3G56lfEtqRURERKo2ZbIUpGa1IGkpD/9kM09o/egSFJTvtLB6DzkxMQZ/dsPojJqF4hjvySMTa3etTi8x8Rz6d2a0hwLd8CwpCF7Ve8MS1uZ7sa1/HmZvo39e/zxIWJsElvX9vDNIdY5VggkxkUEYK5XjLmPCMXNS93rWtYrIYDc8g0ZAfXpJCI8A2+k2BZpa8DJw7IEtERERnQTtHy54ZxcKBHSZnkJbns5Xsjl6BmwCfggIzjs8vbdkBKxPdaNyAWuSOYtmDeycy9SOuRlHNJGpbLd3ZMVE5pDDFoNGfeznOekDhAAWbVkKtZ62NiiaOuVFGdG6w6C049fMeowi2AekXnWOoqqyAQeyZXHs2TnbNTO3reWaNJ3xdGpbp+PaAnxb5kivj3qNFxAUAP9kraGqzm0r31MgjDynvXcUiZAPyv2cdtwx+LO3KtlYMdALAT4MSwCQQ1nxIawfT7qGoKCgnFTLCo+Yr5OE4R5A6Avasp/O17Ne24qme736HrJnoo32q/ocaNd2TWqs/Wp+Bqvqa+xX//NgrvaQpZ0b0cx9Yr5XDhrKupY4/BC9LtO10Y9dt22176+ErL0maWVzaCAREVFbtT3IEgO9EJTbSOmdzEQG4/eNp/7TO724nhgFEMP/3979rbSR93Ec/yzsLUyRYthNWFkweKAFS72AmIPaMXdQsArBE9GTedzjtTlRPJGAbmDvIE71IOYCUhRsD0ShCJFFKeJcxD4HM5nMpJOYxEm02/cLFh46Tn5/ZgK/b77f3+95nRpTMlXSeTATZjYXmYebo9r3f/UvSS0ZsvTSK9Uav/qfjWs+sICObtNjZDSv916moSrNvotlb4QxO6nrNS9DoYwWLTXHuXshOVWtpMLjdMvkWuYgZQaCnnEt5m68+0o6n3jTW/BnvVP2tt1i1NLirNND2dmcisdboSzO3m1G241Fe25HJ5vB0s/wL//uWMf8eX+W635hGD237iI3mP1ZOTK06C8451TMGYF5bfbHzs/45YnnvZaqFkwvQ3Wpq/qWEuXm56afG37AtW5favv5B+2dSc9+mVMjk7SnBXfhnLvRSuNZ5xJ6Ji/gyu3opP5G17tVOcao0sG22zzPTnPrjrWZaW4ZjPc9bM5f43tk52e0ciRlrR2ZgbLe14X756/jdzC3o/mRwHchcN/934fAc23zw0GUju9JbkcnS833ZOXIkc5K/jO9r5Q1PdvIXIbfzfuNK/v8Q7MCwHtm976bRkYvvq5q78xQdmlU+2sR7wkAABioIQVZzV+dt6c+a8UvR5pTdsqQMbvl/1q7PWvIeN7FcsB6pbTGtej/suz+uh3MkDmBDMyG2VjodtNmYD9LeVnTLYs4d5HT+94w5+i9d8+Brm8bC+uHclQpNOazoNqZocTvweveItmMWnC6WZbzj22yWD2XnaWVMMJ7gTY+XkgjCZnyAuyzkl63WfuGMiqbGRk9LAyj53ZOiREntNi2q58DC84DXd+672Z/Bxa0mVvL1lWjJHCtqmdLrZ+fVvH40g0yQve6WcDGYn/vNqPtqIzK5qj2UzPKf1NC2/559j+34cxk63fFzs94/XSD63bPtvUzO34Hy9e6MzLa7ncfovVOWTV/yOmmP53fkwjeO92N/r/3F9prvB9fbnoIlJrfQaenLDQAAIjLkPdklXRuBDIboWuB/yIDgghnpfB9XQc+D2jzvySX1QtVtRc59M5lhPH3ZUd/zKr5XNaqGsbxBI0Mz5/6X2ynzq2/Gm8urMvLmt698Mv6zr86MmYXAtmtOSVGpLt/DtznYTQX1hvmqiqOV0pYvtadn7X0gv7fR2U4NzpvNNzueT5gbs3i/5RVM6vU7tAIx3G6+3GkeUeH72Aje/ZesnovHW09qOXByhWdOoEfimYd7f0n9q0BAIBBGXK5YEF7R4408cr7dd7LJFh97Bf4ciNnYqGPk8se0Kan/z1ZHXT8pfpc105rhipC5CEV7fdkrb/N6K7dYrRjGWE77p6ieT9r4+1H+lSRLS870K6c8fdRGY1yOK9vRi9NR/Ke9dvm2NffZmREZOfs/IwbfIQyFPdlHtrPbTDgMH9pjsSufpajwDOy3ilrBJ9ZMBubVsK/taDamfy5bJ3bxtgin+cD5jb93JBur73PtLQ4G76zcRjH9Mv3qoy0fh/bzV+330G3fHLlyGn5jA7fB6/UMPqHg/btdHxPrHfK3gZ/0GktT3yIRqaw1+Pa48yGAwCAuA19T5adf69KYCG+Ybr7FLbr7TePR/IyBM2N391v7u67zUEqL2v/LFD+GFq4HyhfDo41uCALHACwOanTtS4XgB1PDexURthYFIY33rvzd6D8y5Lu/DKwLWVvm3tX3GfmBA4sCJTRFf5SxWmOf/5rtZmh6dhmZxvmqiojC357iyNVrQT39QUPM9ic1GkhHKRs/F2V/PF0F1i3thnKfJSXNb2r5nNekvYai/Zv5mdBz46aJXgb5qpOp5pz++LTanNuOz3PjnN7z1j+rsqZaIzlja6Pmnu2zGLNHZtZkHSgfOHb0sh289fxO9hyyMT21Gf9GdoX2P77sP42IwUCz6BGyeT2rCE1xuR9zzq+J4W/QtfCbfb/bj5UP++mP7fBg3Y4FAMAgNj99Gvyt38fuxPol6XD+htdr/W+P2zddvcERR45bdnuoQuURH03Oj7PHpjFmraff/g+y2dzOzrZHNV+rJkmRXwfmge8cGQ7AACI8vNjdwCPY8Mca78QLZhKfodr7B9Zx+fZNfdACudTt3muJ6a8rOkB/B+Vu+WeN4F/ccs47/4hwAIAANEIsoAfmpuVyTa2Wp2VlCQ7E2Ln3yt7vKXt+qW2vX9zjlY1zQ8RAACgDcoFAQAAACBGQz/4AgAAAAD+ywiyAAAAACBGBFkAAAAAECOCLAAAAACIEUEWAAAAAMSIIAsAAAAAYkSQBQAAAAAxIsgCAAAAgBgRZAEAAABAjAiyAAAAACBGBFmxsXRYr6mYe+x+AAAAAHhMwwmycjs6qV/qqvHf8Y7MATe5bgfaq1/qqm5rvdubLXsofXTNqXjc0lfbiu3TzWIt1s8bLAJVAAAAfP9+HnwTlg43J3W6NqZ8efCtBTlHq5rOHwy30T6d747pdUFyg64tXdlS0iw8drcAAAAA9GjwmaxcQs/u+ZNQ1qk1g9SSBTspzsXSreg2LR3WL3W1NC4ZGW1HZpZaMk+t/c3YD+zrgfKFqpyJV83MW8scHAa705olbPTV+/ftWUOaWGjTJ28sPWftvHlq/czcjk6Od1S0L3VVr6loeX3zPt8s1nRStALz18xauc9jQWkZym6Gs49msdbSR7ffcb0LAAAAQJwGH2SVl/XnkbyF87cle2axpvmvq0qmxpRMjWnl06T+CC7aNzO62x3zr/eSmTJmtyKDofZtFvQ6Nabk7oXkVLXiXW9mlNwsU/a25N+bfLksu9mislM37n1rVWn2XfcliqE5u9adDCVykpsJHNV+o71USVpqzuP62/D8+H0tL2s6NaaVI0c6K/U1f9HmVDx+o+u1RpurOp36X7PEz8joxddV7Z0Zyi6Nan+tKscYVbpxeXZBibI370dS9q0bFG6Y7tjO5ajif7apDUl2/oPOjUllG23ksnphXGj/O8lSAgAA4McylD1Zdn7GXTTvSouhgGdO2SkjFAxtzxoynrtLcjMzKeOs5JXRfcss1kJ7mQ5bth45R6sRwVDnNjvyFvd7bcv4HFUKXjuhQElqzf50nT2yXimtcXfe6s1sT+Nzz786Si/1u4/rQPmXrYHiPXJZvTCC2aYtZQ1Did8bf9AMfpyjv7TRen/gedrVz3JGEl3MQ0F7R9KLjBt8m5lJKeqzAQAAgCdgCHuyAgqmkgU3G7RoSXZBkhxV1mb62q9l52e6Dw5C+m+zfwW9TnW5xyqX0DM5qpUlWXIzUW0CO38OLLdMUU5VK70ETf1o18YAD6ywq5/1x6abGUxMSacFslgAAAB4mh7hCPe0Ekbjfx/o+tZQ1orO6tjVz3Im3sR82lznNiVJX25CJW6+ckWnzrjmB7oXyNLhZqaZqflyI2di4Zss3TcKpltu19Jv+x9Hapst6mNPVvlad0amWdL5AOtvM9KnSiBYO9e1E8yKBdtd1v7ZuGbsd8refhj6ISoAAABAtwYfZFl2qKTvqr4g+SfpSRvmqioKHDIRLPsrL2t61wmUpsVz2EHHNr12988CJXp+Kd6B8i9Lumuz1+sh0kvh+fH3TpWXNb17EbgeLrcMH/++IO2a4TK6wl+hsT58/gp6vVaVgnPQy/H4gUM4FlVq2SN2oHw5ONbw5258vFB6YlznHzl1EQAAAE/XT78mf/v3sTuBH4NZrGn7+Yf+j6a3bF0tSXspk/1YAAAAeLIeoVwQ6Mecirnx6MM0AAAAgCdkuAdfAH1Yty+1OCH3ABCObQcAAMATR7kgAAAAAMSIckEAAAAAiBFBFgAAAADEiCALAAAAAGJEkAUAAAAAMSLIAgAAAIAYEWQBAAAAQIwIsgAAAAAgRgRZAAAAABAjgiwAAAAAiBFBFgAAAADEiCArNpYO6zUVcz96HwAAAIAf23CCrNyOTuqXumr8d7wjc8BNrtuB9uqXuqrbWu/2ZsseSh9dcyoeX+rKtvx/cfveQ38BAAAAPBk/D74JS4ebkzpdG1O+PPjWgpyjVU3nD4bbaF8udK5XWpe0IUszutD5Y3cJAAAAQF8Gn8nKJfTsnj8JZZ1aM0gtWbCT4lws3Ypu09Jh/VJXS+OSkdF243ogy+Rnntr1N2P32Ne0EoZU+yjNWJKsV9LHj+E/sexQVu7QCl10+1y/1FV9Qemuxtkylj6yduFMYTDr1mF+cjs6Od7RerEWPUct44zrWQMAAADDNPggq7ysP4+k7GZ0CZxZrGn+66qSqTElU2Na+TSpPxqL69yOTjYzutsd86/3kpkyZrciF/vt2yzodWpMyd0LyalqxbueNAvenXMqHm8pe1vy702+XJbdbFHZqRv3vrWqNPuu+5K/wkfplaX1V1KtcK5rx1AiJzfwWJL2Gu2tVfVsqbHvytJhfUHy56cUyoB1nNsHWLcvtTgSmJ+UqY3A/Lz41Gxz7zaj7WCQamQ0r/f+WJpzNKdizlBlrb9nDQAAADwVQ9mTZedn3IXzrrQYCnjmlJ0yQsHQ9qwh47mbjzEzkzLOSnpdiP5cM5AR+TbD45YLfhsMdW6zo1xWL4wL7ZltOiRHlYLXTvlad/ICJUnhjFNU9qigva9vNP/1Ly9g8cb4iyHnKPBv5YpOHUOJ3yVZr5R2qtqL7E434zxQ/mVroHgfSzMTgXGGpJUwLrQfCI42Pl5II4nAWAPXy8ua9gO0A13fGspuksECAADA920Ie7ICCqaSBTfbsWhJdkGSHFXWZvrar2XnZ3oIDoL6b7N/Bb1ORURDuYSeOTc6V3A8cQUZjzHO/m2YY9pQI3jeks5KgSwiAAAA8H14hCPc3T1ILi97YUXvCbKrn+VMvIn5SPLObUqSvtzIMUa/2d/kZpHGNT/ETIv9jyMjWHZovVPWuFCt0OjnpLI5yS3VC+7J6mKcfe3JKqh2Zij71oq4dq7r0PzMqZgbl/Op0lMwbOdnlFyrygllwAAAAIDvw+CDrJbDDK68PUSNEsANc1UVBQ6ZCJb9lZc1vet4+7niOwyhY5teu/tn425pY+jgiwPlX5Z012avV7y8ksCCqZUjo9mXJUOVNa/ELrTfbUuJ8qoqTg/j7NOGuarKyELEwRet8+PuX+tub1VLOeXmpE4jSxIBAACAp+2nX5O//fvYnQAAAACA/4pHKBcEAAAAgP8ugiwAAAAAiBFBFgAAAADEiCALAAAAAGJEkAUAAAAAMSLIAgAAAIAYEWQBAAAAQIwIsgAAAAAgRgRZAAAAABAjgiwAAAAAiBFBFgAAAADEiCALAAAAAGJEkAUAAAAAMSLIio2lw3pNxdygPt7WVf1Sh9aAPv9H1vfczql4fKmr4x2Zg+gXAAAAvkvDCbJyOzqpX+qq8d8QFqXrdqC9+qWu6rbWu73Zsoe+cG7tb/cLfnehT/AFAAAAPA0/D74JS4ebkzpdG1O+PPjWgpyjVU3nD4bbaB/MYk2LKimZKrT/o4KpZIfLeIC+5/ZA+ZdP//0CAADAcA0+k5VL6Nk9fxLK4rRmkFqyYCfFuVi6Fd2mpcP6pa6WxiUjo+3GdTuYJvJKxNr1N2P33Nf0c6PD1WB74XJEs1jTVX1LWUNKL0X/Tce57bfcrTUzGZyftllLS4d1W8VizcvUeXMdzDC23NtrNi9ynLkdnRzvaN1rN/xc2s9t5FiCY7Xs6PHLfS4nxR1vfD1mUQEAAPDdG3yQVV7Wn0dSdjN6sWkWa5r/uqpkakzJ1JhWPk3qj8YiOLejk82M7nbH/Ou9ZKaM2a3IhXf7Ngt6nRpTcvdCcqpa8a4nzUaaY07F4y1lb0v+vcmXy7KbLSo7dePet1aVZt91tbjeMEs6n1hoE5gdKP9yTMlUSectV+z8jJKpVVUc6dyfoxk/Y9hxbh9g/W34mTTnR1J5WdOp5rW924wW/RhkXNnnH7Ry5Ci99EbXayWdy1AiJ7kZz1Ht+/eWpKVughP3mbz4tBpqczsY+BgZzeu9ez30XNrPrdufwDgb70RjrAXTndMjJ7JXxmxG8u7dOxvXfEw/DgAAAODpG8qeLDcYGFNyV1oMBTxzyk4ZoWBoe9aQ8TwtSTIzkzLOSnrdppTLDGQnojIfztFqRDDUuc2Oclm9MC60Z7arLXNUKXjtlK915wcQkp8li8wqecFdalWnU1sxHXDRzTi9ICMUKN7v/KvjZs7sqE6Gx7k4IT37pRFgOKr87c3d2Ydw+aj1SmmNu+9H/VJX9QWlg/MXzByFgtG0EsaF9gPB98bHC2kkEZjfwPXysqZTpjZ6GK/PGFUXb4k3vuZ7e/7V6e79AgAAwH/CEPZkBRRMJQtu5mHRkuyCJDmqrM30tV/Lzs/0FBw09d9m/wp63WnPlSR/j49l6yq3I7PQW/DzrcGM0593L/CRU9WKF6it2wtKn5X87Na6fan5bj84cN83hr4nraDa2YIWly51tSQ15rKv4AwAAAA/lEc4wj2thL8F6UDXt4ayVvSeILv6Wc7Em5iPRe/cpiTpy42cqKxFuaJTZ/ClX+YvnfZotTrQ9W0wWxT893vG+dAjyAumW2rnz9WcEiOS89UrvsvtaH6iy8/6ciNnYqGPDN65rkPPZE7F3LicT5WHBai5Hc2PBEpGU8MOygEAAPC9GnyQ1VLmdVVfkHbH/FKqDXNVFQUOmQiWypWXNb3rePu54jv4omObXrv7Z4HSNb8s7kD5lyXdtdnr1Z+WQxvql9qe+uxnhprld275nDsX4UMaNv6uSn6fmtfuHWcs/V2QdhvldwfKly+aJYqbozpts2fpG+VlTe9eBA7w6HZuW5+Ju2euu717Hea2vKz92/DcBee2Uaq6PWtI3n666PJJAAAA/Gh++jX527+P3Qngycnt6GRzVPuB/Vvr9qV71H7bPXkAAADAo5QLAt+B30cVLtpsKYUEAAAA2iCTBbSxbrunI/o6HcwBAAAAeAiyAAAAACBGlAsCAAAAQIwIsgAAAAAgRgRZAAAAABAjgiwAAAAAiNH/ASPc01OgYm6DAAAAAElFTkSuQmCC;" vertex="1" parent="1">
                    <mxGeometry x="260" y="-280" width="657.22" height="250" as="geometry"/>
                </mxCell>
                <mxCell id="15" value="" style="shape=image;verticalLabelPosition=bottom;labelBackgroundColor=default;verticalAlign=top;aspect=fixed;imageAspect=0;image=data:image/png,iVBORw0KGgoAAAANSUhEUgAAAWsAAACUCAYAAABV9QgAAAAgAElEQVR4nO3df0xUd/7v8SebElfWIi4/tNAZkYKUWjXL0MWVmsjX6CiWVWsTcqvrYnolq0b8XtdWy92K2A3Fb1u7xbUmun6xbmlCcuuP0qKj28VNa8tUh61Vv1ShKkxBKkxFNKBht94/Zs7hzC8Yfs/o+5G0MufXnBlmXuc97/MZTlB8fPw9AlBUVBTXr18f6d24L8hzOTjkeRxc8nw6+8lI74AQQojeSVgLIUQACFrwzOKAbIMIIcSD5CHlh3v37qn/tn7fOGI7JIQQwt1D169ZAXtIRz2iU0NbCCGE/3jI+eY9CetBcPPmTaxWK3fv3h3pXemTUaNGodPpGDt27EjvihDChdMJRntOS1gPVCAGNcDdu3exWq0jvRtCCA/UsA4KCrKntWT1gAViUCsCed+FuJ+5Dd2TrBZCCP/j3AbR/F8IIYT/kC/FCCFEAJCwFkKIACBhLYQQAUDCWgghAoCEtRCDICIigpUrVxIRETHSuyLuUw/1voh/i4iIIDMzk/LyclpbW8nKykKn07kt19nZSVlZGa2trQAkJCSQmprKwYMH6ejocLs93HJycli3bh0bNmzgxIkTPq/zzDPP8Otf/1q9/Zvf/IbDhw/zu9/9jtdff509e/YM2T4nJCSQkZFBcHCwOq25uZng4GDCw8M9rlNZWUl7e7v6XCclJREfH09ZWRkJCQmkp6dz8OBB9fc0krKysqirq8NisfS6bGtrK01NTcyZM4eysrJh2Lturu8Bo9FIa2srFosFo9GoPr+enlPtYwwJCSErK8vtd1dZWen0HCi/9+bmZtra2pg6darbdq1Wq9fnYaTeawkJCUydOpWDBw+6zXN9DvuqL6+V/gr4sHbl6xvlxo0bAKxZs0YNkJEyffp0cnJyGD9+PKWlpU7zKioqyM7Odlp237596PV6ddr169e5e/cuH374IQB/+9vf+Prrr9mxYwfAkAV2bW0tb7/9NmB/sT/77LOYzWZqa2sB72/KhIQEj9tLTk4mNDTU6fGCe1gMB6VCrqmp8TjfaDR6DCmAjRs3Ot0+d+4cJpNpcHdQY+LEiXR0dKghExYWpv5sMpmwWCxkZWVRVVXV4/PY0dFBSUmJ07SsrCynn3U6HZ2dnZSWlqoHBk9h7u25AfvrJjk5mVmzZg3p8+LpfuPi4sjKyvI5JyIiIsjKymL06NHqtJF4PcIghPXkyZOJjo7m5MmTHufPnj2bpqYmLl26NNC7crN27Vr1SczOzu7xaK5lNBoJCwvjvffew2AwMG3aNE6fPj3o++cLJXzLy8spKChQp+fn57Ns2TK38D579iwpKSmAe2U9d+5cNQhPnDjR4xtmsBgMBmbMmAHA8ePH1aAGCA0NpaWlxafqyWAwEBISQnNzMy0tLcP2JjYYDKSnpwNgs9k4ffo0c+bMUT8trFmzRl3WZrNRVlamPp6hDmFfxcfHU1dXB0BISAgA9fX16vzW1lZ27dql3natoHU6Henp6b0+nrKyMrUC7Qtvn3Z1Op3ba3Son1OTycSzzz5LQkKC02u1Jx0dHeonE+3Ba7gNOKwffvhh3njjDQoKCigvL3eal5mZSX5+Phs3bhySsN61a1e/Pjo3NjYSHx/P+vXrqaiooKSkxGu1N5SUoD5//rxTUOfk5LB8+XJef/11t5bI/v37ycjIcJrmeukj7Tp37971+EYZLEqFMW3aNBob7X9a17XqVH72djANDg4mKSmJzz77jMbGRrKysti4ceOwVTBWq5Xq6mpSU1PV264flZVPCT1x/SiclZVFW1vbkIZPSEgIISEhpKenqwcdwO3TiaKrq0t9zXvaZ29cK8zs7GxsNhstLS1u9w24/Y2ZkapGPfHUBumLRx55hPXr1zu1/8B+8Hn66afVT5uDbcBhbbFYKCgoID8/H0ANbCWoCwoKvFbdgyEuLo7Q0FCysrK4cOGCWnV6ohy1z58/z/nz5zEYDDz99NM0NjYSGhrq9uQPtddff52mpiZmzpzp8Vpzf/zjH/njH/8I2A9MBQUF6ptw+vTp/PnPf+avf/2r2uaYO3cur732Gi+//LLPfe+B0FalYK9ClTewa4VkMBiIj48H7B9HlarGYrG4vYlLSkrU6k9ZZrhpH1tnZydVVVUel9OGXVtbG/Hx8Wr/NyQkRK14h4pr68JgMBAREdHvA4SnKriurk6tzj0VRx999FG/t6011FX1ypUrCQ8Pp7OzE5PJhNFodGpvgPNBzmazeXwfXbt2ze0xB0zPWgloJbCVnz1V24MpJCSE4OBgbDYbYP8Tn2+88YY6z7WH6spTUAynefPmMXfuXF588UVefPFFzp4963G548ePqz/n5OTwyiuvMGrUKMA50CsrK/nhhx8Ae3Dv2LGDnTt3DlnPWnn+lCCuq6sjPj6erq4uwP47yMzM5JNPPnFb19PJSVdWq3VEfz9Wq5VPPvmkx4/92oBubW0lOjqakJAQYmJiCA4OdmpHDIf4+HiP7QXo/mTj+twrbRCbzUZXV5dTFez6sT8uLo7Ro0czZ84cTp06xaJFi9wCD7oreO17r6ysjJCQEP7jP/6Dv//973R0dKgVe11d3ZC3lEpKStQ2Tltbm1NryNsJxoiICEJCQpxCvK6ubljC2dWgnWB0DeyhDmqAmJgY9edPP/1U7Xtqe6ShoaHk5ORQWVlJbW1tjyeGwLlHCT2f1R4K06dP5/XXX/fYAoHuk4Xr1q1j27Zt5ObmOlXXH374IZMmTWLmzJlYLJYhHQ3iKiIigra2Np+Xt9lsXkcEaCtxf3b58mVSU1MJCQmhvb2d4OBgQkJCCA0N5ebNm8M6qkVp5X3zzTdqGEJ3j1qp8rUnhpXnWXmNu4az9rUfEhJCWFgY//rXv4iIiGDKlClq4PVlNMW1a9dYtWoVnZ2dBAcHex2p4i889ayVg3h9ff2w7XtAjwaZOnUq9fX1REZG0tbWRllZmfriUw4U7e3t1NfXExcXR21tLSaTyeMRXDnpONzDrvrjueeeY/z48eobRamud+3axQ8//MCcOXN44okn2LBhw7Dul/K8Go1GoLuf6gvX0AgEra2tap8+JiZGHWE0btw4p5N+wyU5OVm9z6SkJLXqS0pKApxHtmg/DfVE++lo4sSJdHV10dHRwYkTJ0hLSyMiIqLXsOrq6uKRRx5xGyWjVPbaqtWfets9aW1t5euvvx7WoZqDFtbaHjXg1sMeCj/88AP19fVMmzYNsB/dDQYDlZWVTstdvnyZ9PR0ry+shIQEHn/8cYKDgzEajSN6hj8qKoqf//znPS4zb948wHPfOj8/n7Vr17Jr165h6Vv3ZNy4ceqbuzcRERHodDoMBoPfvFl1Oh3Z2dl0dna6zfvZz37G5cuX6ejooKuri9DQUBobG+nq6iImJoaQkJBhbYEkJCQQHBxMTU0NHR0dagXY3t7OjBkzOH78uNvvQfkUpNPp2Lhxo8cLTygH3NGjR5OUlERNTQ3Tpk3jzp07lJeXu43LVoJXGTmjbOPcuXNOfV7XNqUy9HMkh9D21XC3UQclrLVBrQ3noQ7skydPOn1jzGAwcPPmTWpra50qOmVc58SJE93C2mg08vjjj6v9taysLHWUiK9DewbixIkTTqG6bNky9Ho9paWlfPXVV8ybN08NZ09Gjx7tVFmnpaVx9+5drl27pob5rFmzhvxxaJlMJqfhYZmZmZSVlTm9sLUnGRMSEoiMjKS5uVmdr+2HD+SEmS90Oh06nU4996HQtsC0o4UiIiIYO3asWklr+9YlJSUYDAancc9DLSQkhNTUVMxmsxrIZWVlZGVlMWHCBI+v5YiICOLj49WrAymPUzmxqj1xbLVasdlsfPfdd07FkfbkZk89366uLvUTiDdz5syhvr5+WN5zCl9fW5561iNhwGFtMBg8BrW2h33r1q0hHREC9i8GTJw40WlYTldXl/qGUk5+KYGhvChtNht79+51epFrv6E1XB9xlIq4oaGBuXPncvbsWfbv38/169dpa2tj7dq1nDhxwu0E4927d/nDH/7Anj171BORf/nLX3juuee4cuWKx6pwqCnP3zfffENJSQlGo9HjAVA5uaT0BD2dyPPlY/ZAuQ7dg56rJtcwdn2zD3cLJDMzk5aWFrVIUQ6S586do7q6Wv1dKPsZERHBxIkTuXnzJikpKU4VdU+P27U48oXBYKCtra3XT1fD2f5Swldb/ffkvhlnfevWLTZu3OgxjMvLy7l16xZNTU0DvZte1dfXY7FYSEhIYNmyZeooEeVFoq3U0tPTsVqt6sgRV8oJmKysrCFti2jHTH/11VdERUU5zVeO5vn5+ZSWlqrD95SWh1I5g33ESFNTk7rO/v37KS0tpaKiYkj2HZxHdJw7d04NipCQEPUbbtD9Lbpnn32WUaNG8dRTT6lDqLQnl+rq6tyqus7OziH9qKkNp9raWrfx9trHqIRaZGQkZrO5x5PVyggLGNqT1AaDAbC3+tavXw/gdlB8++23MRqNbNy4kc7OTr744gtaW1s5ePCgesB07SdreRrZAZ6/xamtQJuamvj3v//tNBpI+3zabLZeK+7BprTmfD2p2dra6jQ0Uvt71D7+zs5Oj6OeBlOQwWBQLw0THhXNjz/+mxut3w/pnd7v/KXn2l9KAAgh/If81T0hhAgAEtZCCBEAJKyFECIASFgLIUQAkLAWQogA8FDUIzru3bMPCPnxxx9HeHeEEEJ48tDVby+qN3Sx/v+HcwLBqFGjuHv37kjvRr8oX7YRQvgXpy/FBGn+L/qneVImd+e+N9K70W937/3Iza92MLb1q5HeFSGEhvSshRM5VAvhn5y/bh4URJC8WwdkwpVyJlwZ2r/jLYR48KhhrZxkDAoKwmZr48d79+zBfQ/ueVtbCCHEsFDDOigoiKCgILgXBEHwk6Cf2AM8SD4aCyHESHPrWQf9JAhHkU1QENIWEUIIP+DhT6Q6KmzHzwBBQdIIEUKIkeQ8dC8oSO1dK/8KIYQYeW6VtVJVB0n/Qwgh/IaMsxZCiAAgYS2EEAFAwloIIQKAhLUQQgQACWshhAgAHsZZjyz9kk2sfgrO7NnOB1d7WDB2MXk5Bm58/Aq7TykTdSzdlEMKFnZvP0yDunAaqwuncD7vAk8Wzkd/9RgvH48kLwve236YiTmvkhFrpSJvD596u49G+88Pe9ufq8d4ec8pb3NHnHF7Bbm8zcJNJi9L5HLAvIzJPmzLdnKLfTsLivh4HRRnbMbky/q2SvIzNuNtD0ZWLgfMKZxJXUGxlyWM2ysomB3uw7Yu8n4P2xk+Rooq1sPODDYf1UzdXkHB1K/dfheeHt+lk5WEz07H7VH79e/y/jSiYW0P5jEe56XkvEqK05TbHgNcv3ATSxvt0/VLnidlLHAziomx0KAsmzYFPTrGLbnODcekWfMMPDzWykTSeDIWuHmdeh/2+dbpPRQesmqmpLG6cD56H9YdHkaKKrbhOVO2UWXe5jJNCZZiVqS6xMu6A3z8aKn3gD+6meLZFRRUFEFGE84hZaSoYhlNGf4QWi7WHaBqeaLHWZPNZp53maYcnEybMlzCyY8fI8C6Zcy+fowZRyF3v5nnk7Qz0ykwmykAwMbJrRlsVh5fb7/3BUUcmF0pQT3MgpKSktRvv8Q+Zn8B11w479PKP/3pT4maMMHr/Jttbdxsa+vTDvVeWfchHDXV7qycTTx54SIsNKC/aqGCRJ68sJ3d5PDaQp3LjlvY/VkUqzXTb121QqwuICtr4/YKcqcC11uxfV/KCo9vQt8ra2pKmZHdHU+5+82kWEpheQpnUs+Q4nE7jkA46jbDD+RyoGI+4eGt2GrgTLbn8PW9svb2WHM5YJ5Pk+s8p08onu5Huz3P1bKHvXU6kNh/R6ms2OlpOeftuS5r3F7Bsu8yvN4Ww2NAlfUzi55l8uOPe51/6Ztv+H9l7/ewBUfbYqz7HNfK2q2i1YSje8A7B7p+ySYyYsdArME+IdZABsC4xSy9oQMcLZC0HF5bOI4zZYdpuAovN7q2QXTd+6Es21u7ZkTZq+yp57ZQfG49uZRSynqqKtI9fIR1rqx7b5to3tTZqUAuB5Yrc1zbAI5A8EfrDlC1HN5PPUaKOYUz2WdIMZs58J57sDlX1r23TQZCbTUp+7iuCOPRPrQd1i1j6rlSNi8o4uOt0dhqYPJyM1XLPS1s46Ty44IijEkXMWV3z00cD03qAkbSp2pvi+EyoLD+vvlaj2H9ffO1XrZg5YPtr/CBZorvPev5vFY432mSe+vEruHQdl4+pAlwJehjF5OXo7nvqHG97C88/FQOrz3l6T49t2lGiv1jr42TW1NZeBSM2+1hadqUgWlBER+bzeRqAsH9YzJ4bps41JQyI7uUA2YzB3ANtkSed2snaALBHywo4uOt6YTXlDIjtRjI5QCgHLRy95upMmsOOsryLpvx1DaxG8RPEjvPcGl5Congc1jnGhIJT9pG1Wz7fjRlmcHDAchtvSz7c6I90EZHtdKkPo5EovmaUr/8hHR/G1BYf/qPSqb94heMHRvmNu/mzTY+/UdlD2t7r6rBc/Daq1rHjT5U1sqJQk5baHjKgN4t6McRFYu9Z33zIqfd+uKvknfVXtU3KCc0/bWydoSKreYikMjsrWaqtiozXcJ39jaqzOvtoZKd6niD5nKgIppSjyeP3KvJFVuj+XhdEcadTZrl/Luyzt1v5vmoi1yyQXjSMqrMy9R5zuHrOOjUlDIjezMLHQHVUxvAl08kfWXcPp/JNcdY0Yd1irNTKV5XRFHdZjYfhdwswHCAKrPnXv2l91JZwQHHAdvxnNgqyc+oxNPBt8DlYC+G3oBPMH50+BDLfrvS4/SeuVTVaY7e8c3b3Bo7RjPKQ8fSTc9DmRKKfT+VN2uegRsf7+H60zmk3NSOFNGxdMkCop7SkfiLNJg8Bm600IDzyc8GTRvE7x11hMq6A3z8vfc3k6fA0fZKu08+ubrIGU/3Ry7dkefflXVxdirFjp6u9zaGp4OWtq/vraUAtkF4oOGzuw+stpNbmJHd11DM5cDydCZjpmpdJSevK/u2hWLWs+y7DEofrej+F8g1RHCpxgaWDFbstD9+MLE5w8Nhe7+ZlO8kqIfTgMO6/uoVTldV8dSMGeq001VV1F+94vtGYheTt9DRO96+B3JeJePpxehPHWZijqP6npfGB9oTeH1ogwDoF+Y4Yt7A6kJH7/rqMV7ec5Slk3PQT36axLHQ8Jn9PhoObeflfzoqctVtmLKJ1xZ2j2BR7rPBaQihf9C+4T25pF7Xt7u3PWNrutPJLmf2ylpLrSRPRhNua+IixRQ7et9DUWUOLk8HFQ2b5pOh2ttO5YzXk3XKYx44tWe97gBVy5eRi6lvvfF1KUxWWzFGiiqm0XQO9yF4GsXZGfaD+AD3XQyNh7q6uga8kU//8XcmToolavwErn/fzKf/+LvvK8e6j1/+dM8xniycz/JNiTw8FsBKhRrUp9id55yKvfW5P92zh6hNOaTccLROHFX8rZYGwMrpS7dJeWoMD9+08J63wI2J4mFucLFlHHrtmOxY10D3H7YePqY6vyk11dOCdAhP97myThwfjs1igvhlhF8/4zT0yx4uiX48vK2n8dBKZemwcwUzdipzejpZ11NlfZEm2zKi410mx0d3P3eudq7gfYMZ43YjxX056Gn2FxKJDm/lzHcwe/k2x+/V7PRv94HbWfp+MwWu5zJs3ZW6GD6DMs76zp07vLf/vxk/4RG+b77GnTt3fFtRaX1ctXBmnEHtX8/KmY/e0Q5xHhLX87A9j5W14wswiWOBsfN5LSeSM+PsVfynjtElDddvAGNgrIGFaYc9Vsizpujg6jFO87TX6t3f+F5Zu/D6hQfXyjqXlKSLnMk2UlSRyKWjK1BGhZhSTbB9PXCRzTuj+Xh/LsXZ/hbXfaisXVzycrKu58raROW59RQsKMK4U3l+czmwPJFL73nvSBdnl5JiXk/RAlPfTlhqT4rWlLKCFIw9tEE8qcxOZbP7o6SoIr0POyIGw6B9KebOnTt9a32gY+nTOkf7QMfSTQZAR0bhq/bZVz+jsCySvJz5vFY4xVHJulfV4NsIksI92Cv4WAMpwK3TR+2VseOA0aD0tDVfsulm/+LMrdPKdyLt+5mhWeIGfsapsuojXyvrBY7Wx7plPB9+kfd32k+G8V4GxYBRWe7oZkxZFRQtKPajcdaee7G+6l9lbR+Nk7jf7PT82k5uYWGPv6tiSk/Op2DrAXKPlgLhLieO3T8h2E+iVpKfuoX0im1EW4rBMd7F58fm9WCVSHS4jaY6nzYnBskIfoPRfoLRTk/UWPA0/K0w77A9jAtfZZbbtwd9MyvnVTJisX/ZZfthGkhjdaEyBO82Z/a8Yr/PU3tgUw4p89L44Hikoz1zm4tEkqhU4kvs++63bRAvQ8y88zDEzMfK2jh7Gpx7Gx5dj+3k2xSTy4Hxx1hxsoiPzemEY+PkVvtWirOPcWB/Lhwd+era8zDFHrh8CQj6W1nbFasjbzxz/6akyzQfDjLqfSwoIpdKincC61y2teBrcreaKcDGya3d69ofm0sbCJfnraaUFX5z4H0wBMXHx6vfYEx4/EnA928wCiGEGB7yV/eEECIASFgLIUQAkLAWQogAIGEthBABQMJaCCECgIS1EEIEAAlrIYQIABLWQggRACSshRAiAEhYCyFEAJCwFkKIACBhLYQQAUDCWgghAoCEtRBCBIAR/HvWw0mH8f+swhB6G0vJf2Fq6H2N3sRkvsRvk8fQVr2Xd8r7/je2hRCiL+7Lyjom8yXy8rfx/Izelx0JeUdquXLZ/t9H7tdMGpjNR4Zmu0KIEXVfhvWEiDG9LzSCChclMCluA8daRnpPhBCBwj/aIPrFrFmZTFh7Ne9+EclvjTrA0bKIXkWeUQfAVdMW3q9SVkrj+XwjscrNBhOFJQ2Odod9UqxxG3m/qubdtyyaO9Os12CisKT7mo6Gldswaq7G63x/Os22rViqtQ+ge57zOiOgaBGTikbw/oUQQ+InwcHBKP+NvMkscgQzjMGw9CXWqLch9leLiQHcghpAb2RN5vhe7+GxpZr19Ea1VeIa1GAP++753QcB0GFIHqrqPZPd5u42yRXzLhZp5mpbKPb/Pmf3Etf1lGmKzXx0+Qi7d3+urvfl7swh2n8hxFDwrzZIKHxbsoXCkmraPN6OZAIQk5nWXRkXdM8Pi3+U829tUU8gXjVtofCtwzSqdzAG6vZSWNC9TFikDvSLSdUDWDEVbKGwYAvvVt8GIDYpTTP/NpaSLU7r21kxvWWfPrCqOpPd5h0YqjcwKS6BSXEJ7G2ex5+O2BvQi3Z/zqoJx/nPuO42yoU9M1l9CKCc1akJTIrbxwWP236C+cn/tK/7++Ng/N/kDWRXhRDDyr/Cuv0S5xuAhhZ7OHODVqfbLvRG8vK3kbcymTCf7uA23561j9xobr3t4f5baHb82Hj2kv0+wyId1bxm/7ytP2BT0EX+D4dXl6tTCr/4H5igc6qutaIm+loht3CsaC1HAA5ZuU4kuiW9rSOE8Bf+0bPuL5ees2JCf7fnqNwbgZjpk+0HgLYWGol0mz8SJzGPHP8n/9c4jz9druVPAOf2MUkT7EKI+1dAhnXj2Uu0JScTpjeSl29Up7ue3PN8gtGDhsOYG5Ix6nUY87fRvcXbWD45BQ06vm1PxhDqOl8xWCcYL2BteYHFuzMpXF0OZLJ7yRO0VP+FI0Be9jyu70ngl3ICUYgHjn+1QXzVcJh3lD62B5ZPvM/zxlKyF0u7dor2CzRWTB9ottlejam6v20Q5UTgDuZHwpQc7Xjrclan7uO6cYfjROAO5jfv45eO6rlw/3GiclxOMB5RBlRv5qPLtVy5/AJTiGT+m55ONAohAlVQUlLSPeVG7GOJANRcOD9iOyS8yztSy+KmDWp4s2QXX775Cyy/V04yCiHuV4FZWT+QMtG5NuMTHyWSFqwS1ELc9wKyZ/1gKmd10Xy+fHMHVy7vcExr4djvZ1I4ovslhBgOEtaB5NBafilVtBAPJGmDCCFEAJCwFkKIACBhLYQQAUDCWgghAoCEtRBCBAAJayGECAAS1kIIEQAkrIUQIgBIWAshRACQsB5iVy7X9ml6f5cTQtzfJKz93KS4BAlsIYT8bZChog3Y3qrrSXEJPi+rpV1PCHF/k7AeIkqQXrlc6zFUvU3XrtsTqbaFeLA81NXVNdL74JDG8/lG+1XLofv6ivrFrFmZTFh7Ne9+EclvjTpAe/ms7ktqKdR5Htd1XAEmehV5btuyM6zchlGv3LJiKtiLRd0/7RVkBp+v1bJU1UI8WPyksnYJagC9kTWZDbxzVpkwmUXG7ovUxhpXYajaiwU94aE4iTW+hLHpvzDhad0xGJa+xGOhmm39ajExVYdpxDWowX4wWEzzWy0DfpS+6EvFLIEtxIPDL8I6JjPNHtSu1XS8gRglrEPh25ItmBqUYB9HhB5oOMX7Bd1XOLeH7RjCo4Eml3VxbNfttuOq5frFpOqhu5pWqvbJPKk/7HQ/fTHQAO6pZSKEeDD4RVirXK5W7qT9EucbABqwtUOsUk0rwd7TdtV1W2gDwrhBq9NtV96uYt4/3gJYCCF85V9hrVTWWvrFPa5imGMPanvf2b1/3T9KZS2EEP7BL8K68ewl2pKTCXOprK+atvB+Uw8rAs2tt0E/hljjNvIGWgo3WPi2PRlDqEtl3WCisIRhOcEohBCe+MeXYhoO805JNW39WLWx/BRX1e2YBhiiVkxv7cXSPpBtuLtyudbtPyGE6Iug+Pj4e8qNhMefBKDmwvkR26H7TX/GWWuXUcgJRiEebH7RBrmfDeSLLxLQQgiFf7RBhBBC9EjCWgghAoCEtRBCBAAJayGECAAS1kIIEQAkrIUQIgBIWAshRACQsBZCiAAgYS2EEAFAwloIIQKAhLUQQgQACWshhAgAEtZCCJXxk0IAAAO+SURBVBEAJKyFECIAPBQcHDzS+yCEEKIXUlkPuUx2m+1Xh/lyd6bb3LwjmivIHNnsNG/R7s+755l3schp7mY+csz7yHk1IcR9yI8uPpDmuMahg3LxXOXq5e3VvPtFJL816kC5DmL0KvKMOkC5YC5eloe26r28U24FlIvq3sZScorwlY77dLlYr2HlNoz67r1Tt6/upy/XYtzMR5dfgD0bOLZkBwaXuYt2f84q9jEprgiwB/eXuy/wy9XlsPkIf0r+J/8Zt5YjjmX/dGQzRxYVwZJdfPnmL7D8fh+8+UK/nm0hRGDxk8raJagB9EbWZOo0EyazyKjcHoNh6UusMXbPj/3VYmKctqldHsKS/5dT+AI8tlRzn3ojz8+w/+ga1ACxxm3qfN8V8UxcAs8UeZq3mVVGOLa/SL09cypEJs9nEZnsXvIEFw7ZgxoymZ8cCVN/RR7AobX8Mm4mqw/1dX+EEIHKL8I6JjOtu7ot2EKh4+K5YfGG7gAOhW9Luue5345kgnajyvyCLY7qdwyPTdeG/xio26uZD2GROtAvJlUPYMVUYF//3erbAMQmpQGneL9gC4UFA7zC+RIdUbRgPYS9Ur78a6x7jtMS+ShTmIIusgXrRbBX5zvQHdrHBSLRLRnAfQohApZfhLVKbyQvfxt5K5MJc53XfonzDUBDi+Mq6DdodbrtZXmgufW2hwVu8+1Zq/f57S00O35sPHvJfh9hkS7V+yDYfIQrbz7K4biZrL7oMi/REeK/91adCyEeFH7Us8atbwyAfnH/tuWotBuBCRFjBrR+zPTJ9oNHWwuN/dsbd4esXH9zHquWHFf70iQ+SmTLd1zgArqWF5if8yh742ZSCGol/rm0PoR4IPlFWDeevURbcjJheiN5+UZ1+lXTFt5v6u9WdRjzt9G9NaWS1nlfBaDhMOaGZIx69/Utn5yibycYe1LE5+deIKrpmNqX3r3kCVqq/8IRyqH6ZeZHf2EPaiAvex6R5/apt4UQDxb/aIM0HOYdpfc8WNqrMVV3tzeumnwPVkvJXizt2in9DWZl2N4O5kdCpHGH01C7wkUbsCTvcAzP24GheoN9JAhwZPVM9vKCOnRvFfuYtKj7ZKR92N4LTAGm5NRy5fLn7JZ+thD3raCkpKR7yo3YxxIBqLlwfsR2aMC0Q/feOjx4bQshhBhB/lFZCyGE6JGEtRBCBID7rw0ihBD3IamshRAiAEhYCyFEAJCwFkKIACBhLYQQAUDCWgghAoCEtRBCBAAJayGECAAS1kIIEQD+P5tT7zw151XtAAAAAElFTkSuQmCC;" vertex="1" parent="1">
                    <mxGeometry x="190" y="30" width="363" height="148" as="geometry"/>
                </mxCell>
                <mxCell id="17" value="" style="shape=image;verticalLabelPosition=bottom;labelBackgroundColor=default;verticalAlign=top;aspect=fixed;imageAspect=0;image=data:image/png,iVBORw0KGgoAAAANSUhEUgAAA1UAAABZCAYAAADW1Q4gAAAgAElEQVR4nO3df1BU973/8af5ylfYaflh1iCkBFGoEA2hLvfqjakG84PvVwWrmYHbqY6apk5qprWp5o5zvyaOab/f66Qxif02JtPmlmRiJqNzayImzlebSrXVyq2kFDWSoBIkgsRVFr0X1qF38v1j9xzOWXaXZZdlMXk9Zpjh7Nmz5+znfM45n/fn147Lz8//nFF222238dlnn432br+QlJYjQ+k4spSeI0PpOHKUliNHaTlylJYjQ+k4spSe0bkl0QcgIiIiIiJyM1NQJSIiIiIiEoNx/3Pxt0a9+5+IiIiIiMgXxfjPOtsTfQwiIiIiIiI3LXX/ExERERERicH4RB+AiFVPTw/t7e3cuHEj0YcybBMmTCAnJ4e0tLREH4qIiIiIjCK1VMmYcrMGVAA3btygvV3daUVERES+bBRUyZhyswZUhpv9+EVERERk+BRUiYiIiIiIxEBBlYiIiIiISAwUVImIiIiIiMRAQZWIiIiIiEgMFFSJiIiIiIjEQEGViIiIiIhIDBRUyZfegw8+yIkTJ3jwwQcTfSgiIiIichMa53K5Pk/Uzp1OJxUVFezbtw+32011dTU5OTmD3tfX18euXbtwu90AFBQUMHv2bPbs2UNvb++g5dFWUFBAWVkZe/bsMY8xkm3uuusu9uzZYy7Pnj2bxsZG5s+fz8GDB2lpaYnrMS9cuJCkpCTztUuXLpGUlMStt94adJu6ujquXbtmpnVRURH5+fns2rUrqjQIpqGhIeptrQ4ePMjRo0fZsmVLRO9/7bXXyM7O5qGHHop53y6XK+L3Bl4D5eXluN1uGhoaKC8vN9M3WJpWV1dz9uxZGhoacDgcVFdXDzp3dXV1tjQ1zvulS5fweDzcddddgz63vb2dXbt2BT3eRF1rgdeLVWAaDpc1HUVERESiMT7RB2AVqiAXqLu7G4C1a9eaBf1EcTgc3HvvvaSmprJq1SrbupMnT3LgwAHbewMLvhs2bKC/v5+//vWvAJw/f55Lly6xbNkygLgFVi0tLWzfvh3wFUqXLVtGfX29ub9QheeCgoKgnzdr1qygaRBYqB8NRovTO++8E3T9a6+9xsKFC4Ou++yzz2zL+/fvH/SdRlJubi69vb1mMJCenm7+f+DAARoaGqiurub48eNh07G3t5eamhrba9XV1bb/c3Jy6Ovr48033zQDuGBBV7BAy9DS0sKsWbP45je/acvb8dbS0sLUqVOprq6O+D7hdDqprq4mJSXFfC0R+XE0GNdwXV3doHtGQUEBDz30UNwrakRERL7Mxt933338/ve/D7ryvvvuo6Ojg48//njEd/z444+bhZ1Vq1aFrR23Ki8vJz09nZ07d+JyuSguLubPf/7ziB9fJIwgqampyVZQc7lczJkzZ1DhzVrwDax5dzqdZGZmAuB2u/nlL38Z9+M3jhMYVOBKTU3l8uXLEbVGuFwuHA4Hly5d4vLly6NW2N68eTOPP/44ABcuXOCtt97iRz/6ERMmTADgt7/9rfneCxcu8N3vftcMXuMdLEUqPz+fs2fPAr78BNDW1maud7vdvPTSS+ZyYGCek5NDWVnZoAA+0K5du8wWneEI1Xqck5MzKPga6hhideDAAZYtW0ZBQUHEwUFvb6/Z0mcNMhOpvLzclnbxTreWlhYFUyIiInE2/rnnnmPLli3s27fPtqKiooLNmzezYcOGuARVL730UlRdxi5evEh+fj7r1q1j//791NTUhGw9iSejcNvR0TGopn/OnDkcPHhw0HcKLEyBr6XKau3ateb//f39ZmtSPBjHXVxczMWLF4Meo/F/qKA3KSmJoqIi/vjHP3Lx4kWqq6vZsGHDqLUINDY28m//9m+sWLECgL/85S9UVlba3rNmzRpzfSiB3QUPHjxIR0dHXAMvh8OBw+GgrKyMsrIy8/VQ++zv7zfzPETebS2wxWbVqlVcuXKFy5cvD9o3+M611Vhq3QnW/W84srKyWLduna3bK/iCxHvvvTeu15txzwDYsWOHWWGxePFinE5nTN1mRUREJLHGb9myhc2bNwOYgZURUG3ZsiVkK9ZImDp1KqmpqVRXV3P69GlKS0tDvteozT116hSnTp3C5XJx7733cvHiRVJTUwcVkuKtoqKCnp4e8vPzg3aXWrJkifm/USg9cOAABw4cwOFwDOpuF+u4kOFyuVy2wvTatWvNgnZgzbnL5SI/Px+w13o3NDQMKmzX1NTYCo+JKIxbW7A8Hg9vvvlm0PdZA6mOjg7mzp0LwN13383EiRM5evRoXI8zsMuey+XC6XRG3WoRrFXp7NmzZmtXsEqMd999N+rPtop3a8vq1au59dZb6evr48CBA5SXl9u69YE9GL1y5YqtpdLQ2dk56DuP1piqb37zm2bLmZX1eKyVGkYQbW1lsp6HwLGmVtXV1TidTnbt2kVGRobtvFvHU4b7DBEREYnceCOQMgIr4/9grVcjyeFwkJSUxJUrVwCYMGECzz33nLkuMOgIFKxAP5qM7lT3338/+/btC9lNztrlKHByCGvg1dzcbH5GuPERI8VIPyNgOnv2LPn5+fT39wO+c1BRUcHvfve7QdsGm+QiUHt7e0LPT2NjIz/72c/4l3/5l5DvsQZSra2tzJw5k7vvvpvZs2czYcIEjh07NlqHC/i6AgbrVgcDLYWBaW90/7ty5Qr9/f22VqXA7m5Tp04lJSWF+++/n6NHj7JkyZJBgQkEL8zv2rULh8PBggULOHToEL29vWYL2NmzZ+Pe5bOmpsasePB4PLYukaEqJJxOJw6HwxZsnT17NiETUzgcDrKzs2lqagr5HuNafO2118zgp6ysjO7ubnMMnMPhMFu5XC4XFRUVg4I04301NTX09vaSkZFhrnM6nZSVlZnn1/oZiZjkR0RE5ItiPAy0UBmBVbwDKoDbb7/d/P8Pf/iDOS7H+mBPTU1lzZo1ZnARrPuclbXrHISfxSwerIFIsJrflpYW9u/fbxZq7rvvPlvguGzZMjIyMpg6dSptbW2jOg7C6XTi8Xgifv+VK1dCzgBnbdkay44dO8aKFSu4++676ezsZMKECdx2221kZWXR2dkZtKUjXowurM3NzWbQAgNdxoxxV9YJRox0NvJ4YBBlzfsOh4P09HT+9re/4XQ6mTFjhhmYDKeVtLOzk+9973v09fWRlJQ05ls5go2p+t3vfkdFRQVtbW2jeuz9/f0hJ9VxOBwUFxdz/Phx85iMSUFyc3MB36QmdXV1Zt44c+YMRUVF3H777ebkPdOnTyc3NzdkkORyuejp6THvLW1tbRQXFw+694qIiMjwJGz2v7vuuou2tjYmTZqEx+Nh165dZiHRCOiuXbtGW1sbU6dOpaWlxew+F8iYvGI0A6hoGbPk/eM//iMw0FpVV1fHf/7nfzJ9+nSys7NjHjsyXEa6lpeXAwPjfSIRWLi/GbS2tlJfX8+KFSuYPXs2ra2tAOTl5TF37ty4d/0LNGvWLDNwKioqMltRioqKAF8B2mBtXQzHGuTn5ubS399Pb28vv/3tb5k7d25E43j6+/vJysoaNPbPaCmztgKNpbFX4bjdbpqamrj//vtHNc8mJSWRmpoacn2woMvj8eB0Omlra6O/v98MnsAXMPb395Oamkp3dzdJSUkUFhZSV1cX9rzm5OTYzmd/fz8ZGRljOjgWEREZ68aDfQwVMGiMVTxcvXrVrCUFX225y+Wirq7O9r7z589TVlYWsgBYUFBAYWEhSUlJlJeXj+o0z4EiCUSMQlywLo7GOKehCkWjISMjwyyED8XpdJKTk4PL5RozheqSkhLefPPNoK1vEydO5NixY/z1r3+lr6+PrKws6uvruXHjhjmeajS7/hUUFJCUlMSZM2fo7e01W1SuXbtmTnoSeB6M72UUkAMnl4CB/JiSkkJRURFnzpyhuLgYr9fLvn37Bk3vbwRIV65cseXTkydP2sb9BOZdo7tqIn/aYLhGu/twb28vHR0d5Ofnh9xvsKArPT3dDJ6TkpJswY/RhdpI9/7+fk6fPs2cOXO4du1ayJbueI9/ExER+TIabw2orEFUvAOr3//+9zidTnPZ2i3FGphYu8AEm02vsLDQHB9QXV1tzgo4Gl3n3G63rabb5XJx66232qaID1cTnpSUZGupMsY0Xbt2zSy47ty5M+7fw8qYSMMocBvjLawFQetkFQUFBUyaNIlLly6Z663jtWKZeCESJSUllJSUcOHCBdvrjY2N5g/5rlmzxnz9wQcfJDs722yZMsZVbdmyhdLSUjZv3szVq1dHreufw+Fg9uzZ1NfXm4HTrl27qK6uZvLkyUHzstPpJD8/nxs3bti6uBpBuXUCkvb2dq5cucKnn35qq8SwTpIRbkxSf3+/OTNkKPfff/+od1eNNG8FG1OVKMZvjgX+1tbixYs5fvw4HR0dzJkzx+yWWFBQQFpamrnc09NjTs7T29tLUVERSUlJXLx40bxnXrx4kevXr7Nw4cKgeef8+fM89NBDnD9/XtOsi4iIjKDxwQIq6xir69evx3UGQPCNFcjNzbV1ebN2dTEmUTAK9kbh8cqVK/zqV7+yFUaNgfyXLl0ata491uMxBpGXl5ezYcMG2+xagZMM9Pf3s3fvXjMgBPjjH//IrFmz6O7uNieNGE3GMTY3N1NTU0N5eXnQQNWYpMAYsxLs949GY5rowCnVAbPFNZjvfOc7tqApcPry0e76V1FRweXLl83KBCOYPXnyJB988IF5Lozgwel0kpubS09PD6WlpbYWqnCtL4GVGJFwuVx4PJ4hWytHe9yiMSV8JPsdS79T5Xa7qampMX92wGC0TBvn2MiTgTPzGcG2MXbUSIPe3l5bRVRDQwNOp5MlS5YM+nH0lpYWUlNTbZPkjPbYUxERkS+icevXr/88ET/+C4NryK1Bh7XAYDCCl0gKAdXV1Xg8nri1klgnzQh3PNYufdYCr7UL1axZs2zHanx2PLvpWNP65MmT/OEPf6C6uhqHwzFo8gGje9exY8f4u7/7O3Nqa+v7Aqdoh/BTPocSS5esNWvWsHjxYvN3qtasWcNTTz3FhAkTaGxs5Mknn+QXv/gFb7zxBvfccw8LFy4c8jOtLV6RcrlcEb8vPz/fDJ6AoK0LRn7o6+vjT3/6E1OmTGHPnj2Dfn8qGOtMftbrzeVyhZ30paOjg//6r/+yTboy1PUZb6F+1y6anyOwXr+aVlxERERiNc7lcn2e6IMQMYyVMVmxiDSoEhEREZEvhlsSfQAiIiIiIiI3MwVVIiIiIiIiMVBQJSIiIiIiEgMFVSIiIiIiIjFQUCUiIiIiIhIDBVUiIiIiIiIxUFAlY8qECRMSfQgxudmPX0RERESGb3yiD0DE6r8//CI37rgv0YcRtb/d6KG/fhNJN7oTfSgiIiIiMkrUUiVjSlJSUqIPISbjxo1L9CGIiIiIyCgb53K5Pk/0QYiIiIiIiNysxl92J7abUt7UqbSeP5/QYxAREREREYnW+ER3VxqflKQuUyIiIiIictNK+JiqW275b4k+BBERERERkaiNT3Qj0S233EKij0FERERERCRa4z9P8DQV48ZBoo9BREREREQkWgkfUwXjNKZKRERERERuWgkfU6WASkRE5IupaW3JsF6P9n0icvOK5T4R+J7h3FtC/UVrfNRbioiIiMRR8Y5GmtaWULyjMdGHIiJxZFznoa73cPeBoQKrUNuF2k+0Et5SNRxLXj5G6/kWWvduHHixJJvXa1w8Wwmlj82gtmYaVSO+54k8WzOD9RGl80SerXHx+mMOqJxGbcTbwcJ5hTStzWM9KTy/ooSmiowIjy+D3WtLODQvBWbm0bS2kOczI9tyIM0crH/RRe2miSHfW7XJ/73iKvr0MyQunwxH7N/zi6Bqk4vaF7MptaZHUMO5BhNh7J3P4VzbiTf20i9qY+5eE17k12CAzCwOrS1h90zrs2uAtcY3VE1wsFrhod4bvDY5+mdguPNV+tiMoa+bymnU+rePh4iOIWaJKLcIwPqKEppWZLHQmocjEeF9pmqTaxj3oCGeszHc28LlEyNYMgIcI7CyGirQsv4ZnxH4WjDDaqUa4p4HcW+pmsGS78/lduDikV+y93QMH7X0Jf5X+WV+NfUe/o/19UYvXdblnj4S+1PCXrp6INOy3B5hBdv+qzfYall293ht69dXlLAyx7/Q3kbxPuOHm718eh2c5jtvcNGWKKGd6LDvo9vtDfHO4XKw/sUiMg818E+1w9ku+vQD4pNPKqdRuzTdXGx+2/+dKqdRuzSZw9tPs60R3w1nXRbUn2HlK8k8W5NHZv0ZVr7Si5Ee8+nkmR91cCLW7wnk/PwnPPpAKu2/Xserzw28fs/u7ZTP9C+ceofNVXWDtgHAfZxX571Fe0R7K+PRD7+Fmf2Gsc9wzru91oxLV0dvRNvFZiLP1mTRZZy3ERHL+ZzCkiNPMMufDv/x/gv87IefmGujPWfxu7bjYWTSLzDtIJbrYSDPB+b3sMbcMym8qK/BLi9u6/J1L2csi0ZBJppa50hapeyFn+ifgTfb+Qpv9J+74cstKTy/YjoPfNW/7tRHLDjSZ65dOK+QrTOTfQvXu9j4Rif7jZWZWRx6ONN/Tr28/5tmfmyeqAx2r82l0L/UfKSRqlORHS8z82ialwb08PqOVrbZVg587rA+M+z3tK+zl93gTI8XBooXuK8OpE9Yici3MewzXD4Jdr0HvhauRSlYIGR9LZb7jM0Q9zyIZ1CVOZfly+7gwp6jsGzuyHzm5U8JHpd56boAJ/BiXmUJ1tXRCxf66CbCWgfDdS9n6AMPWLPJwnmFrKSN4h2+i3F9RQmH5nltNyj31T647MVN8vD22dPHeXrBDcXD2zJuok4/GNl8UpLN60uTOby9wRI4zWD9hdNsA7rPecmc44DGXkrnpNB1zjvwYOrx0OVMp5ReTpSkk+n20O20f3zU33PDEzxacpV2d6rt5Zyf/4Ry3mHznb6C4z27t/Pkz1t9Bc0NT/BoyYe8eqev4Jjz85/w6O6yCAKgKSw58i349To2Pwe+wuZPWPLxU+ytHWKfkXB7OYGX+baH+s0pmvOZ8/Pv8vXGF9j8w0+g8ts8ufW7LKn0pW3058xvDF7b4Qw//XyBD79+gQ8qn+DrAWujvh4qv82TW+/k443vwNZvRfFNxt4zKayor0Evn16G/dxga+7IHEqkBZ1g74v6GRjL+ao9R+WwApixa+TLLbmUtH1E8ZE+f5CUy/Mf+YOjmXlsze1h445m9uMPsCq87N/XDWSw++E0Gn/T6HtvZhaHHs5j/Y5WtpHC8yty4UgjxafwvXdtIc9ftgZdwS2cV+jb5xHYOi9gZWYWhx5Oo/E3bfDw8DJzuO+5vmI6D3jaKH4jdNkNj5f9eHngOnxtWHseOt/u/mkDu4f1mbHvM6QQ+SQwAArXlc963YfqKhhJd+FIuvgF/4zw97z4BVVdR9n58lFgBkvithOAq/zT6qu+fxuD3Nz8rQdGQ2O32XJA6BYIwFebnWfJM/YIvWqTi+XT/As9RusDQC/bftTgX9HBytWDj3jJy8d4sRz+3/p7+P7blhWnWv03Cdi/r9FSg5LBqpnw/m+6zeXZOeBMT2chfeynjx+/YZz8ThbsGLzPkCwPhBNBLj7b9wS6zTA9MH087Fx9jt34moWfnu1/qC11UbsUwDuoRcds/B2p9AsrunxStdjX8mS2aDR28N65LBbNcVBKMrg7/YETzHf2ccKdzCKAkmQy6eM9dwrzS4A5KXQ19ZG5wNhhLN+zjEcfmcgHG/8VNjzBJMvr5Q/ABxvrzOU7Z8JXJv8DOcCsyim0177gr4mfwqySVHCWcA91HAuXdBuWMovjAzX1G0rIIZWMB6ZAbV6YfX4yZIvKiVdOY/SaGUgPQ3TXYOljM/gBnTQV5jE/zbedkfes2xSuczEfGMi7E3m2JoOu+mTm+/Ov7X5htDamDd5nLOez/YdP8TNjofZPfLxhDpO+DjCFJdGeMxjetW1+F3saNL/dCkvzKDTSqCSb11fBe80ZLB+URolIvzpevbPOn1aBW8RwPdS+xc9qfds8ujXwc4cS/l5juz9a7pv407bJncV8/3mxPpPs21nS1radl8Nvd1O8NIuMgGsi6D4Z6hoENu6ldc2dnP5lAYttadFNlb+Sj66BZ1eshjOeYaDQE8MzcKhnA8msf9Hlz7fWtLPmZ8vzza9qk4vSJuP6Cdw2XBli8LnmnP1zrc9kI48M+dwNu894lFtg/5HmgZanLg+N1zP52iSgK4Xnv5FG819a/etTeCA3Gb6aznq6OTMvk8L2Lqr8N/yF09NwkszsmQCTeYAuNhr5bWY6hSTjnJ4CXeFbeczjmZnHoMu6q5MFOzqBjGEHIeG+5+3pXt4/ONAyta21h5V5yUDfoG0H8nAkwuTbgLJtYP4KX/b10n7HNGrX+defa6Xyp1eH3qdfNPkkWHA0nLFO8WipCr6voe95N89EFdO/xqRLf2LvcLbxF5S73m5gZeDJr5xG7VLYubph4IFmtEA0+gpzvN3gzzS+7kKG0sdmsMh9hsqf9prLP3jMYyk8jLDMZJzcoN6ssUmj8UgXznnJFMHAxTzCqja5WE4rlf6LqGqTyxcwALaLCyMNHOx+pdf3kH4lTDeExg5Wru6w7aeqsoMTI1HbN6L5xEGOE7qa7Of1vNtLhjMZXzuwl8PuDOZXQqbbw7aOFJYXDzwMzx/vo3TOROY7+zj8ipfMpRlMhYGbWxTu2f0tMt5/gVdrYckGy4rKyWRwlQ9rGahp//VxMh6ZTA55THJe4/LHMFC7/w7tjyxgUiUQJu1z7pgIlxoHavNLPuTA+xMpn5w3xD6JsGthMLFdgxmz88j0b1v62AyeXjyRbY1X/bV24br/pTO/sJNnVndwwp8vql45x25/Aaq4+QyV/n1UbXLx9Cav5YEzAir/ga87P+Hoc0AM52woodMPIJ35zlaeqc/i6aVZHN7eCuuyyDGeMWlZLHf67wu2NPJvm8j0s4rT9RDbMU3jaWeneU+lchq1myay20iDtCzmu/1pWzmN2gXZlNb6CkO++6rxQb48bKZ7WhbFzWfYSRHLl6awc3sni9al+O41Q+1zFEQXKNm3T9hEFdOyzHtJ1SYXi/zPOSMQ2RZwb7IqXJrBztUN/BP2bcPdv0ofm8HThd2+a8i/7mlLDwdby0NJNq+v8ueRIZ67o15uCZSZTslXe3jvFEAyX/uqr8bf6HLHkTaa52VyeyaQlmx2D1tfUcJK2ni9PZdFE1NYyATweAZat3J7eP3UBFamDQQqCWX7nn1c9CSzyAz4fMEkeFlI/MputtZTf6WLKWzZFyCd5Qs6eWb1OX8lWxbrS66OYFf5yMRyz4jmfjFS95ibIKjayLvnv8uMk/9K3pLhVRmWzskg41zr4IAKKM1Opru+deDm1OihqSeLzDuAOzIo7OnkmaAPVgfzC5PJSCuidrbl5XPJQGQ3p73fv2d4hX7DzDya5sHrO5rZlpnFoWg+I2ITKZ3m5fD2UA/egFpnGEYaBLZAQLfbEeG2odIvPvkkEide6aaqJoMTqzsgsLa8sYMTi12UNjVwgonDGrAe9HtueMLXnemHnwBTgm+44Qm2PAIH7nyKY5Xf5knruq9/myc/vJOPN65jb20Zjz4S+fHcs3u7b9/z6sj5+U8i32c0KmO8Bs+1moWKE8e76V6VTCmRBLNeDr/mr9Fr9NJFhi+YaEwmM83De5YCyO4mD8sXRPq5kVz3ZTy6dQ7dv15nb4WK4ZwFFy79ALwcfvcqzMmCc51sa4Rnbdt72GkUyBs9NPUYaeTfNmHpF0KcrodoVBWnw7R0amvyBl7s6bOkgSVtL/TRnZYyUAkTWPuMly6z3OFP203QXd/JbtLNCrCh9zmErUvIG3Zrnd1Iz7A1qiz3ErNCLcJnle9c+AwEQ+Gvv/mFyTQf6gh5bga1YuGJoKIugeUWwNedLxP3EXsLBZOMLneN/Lgrg922LnnJPL9iutmtbn2Fva+VEWwVv9HNwnnWgoh9vNWgsVrRMsdi+QSODwv1Pbfta2P22uk0zQTw8v6pHkjzxi+gGkLYsm/gPZyrnDiXR6m5bmjR5BPr2CjrRBOh3hfJ65HO/jfSboKgaiuLp271dUHYu3HYBeb4GNzUH1ddXtxksvIbXWzc4b85TErGGWSQ3GgpfSzPN+lCiNq0cKo25VFoaVK2t4BFKx75pJd2NxRn2wO+qc5kut1epjqT/a1YvbZWOwDuSCHD3e2rYR6xPs2+7mA4p7DlQ8s4j0e2s6XyOK/Ou0T31jmUVx43x4nw9cl8xX2JdlqZ5E5l1iOTfYVLsNfkh9F+4So88C3mvu8f9wPkTE7lPy61Qi1h9hlPo3wNxp3RWmKdEKGVy1Ges6GFSr+xPEPgMNXG53qIlb2rTaQm8uzSdMu2oVtHRm6fEj+hrr8hZl4syeYHswkY4xvp+KdE3TONlijrxA9ePr2ezAPzbvgqicHWI+dMj5eVM3P52pFGFpwCSOH2dHC39vnGsszMZdEp/xgmoMjSsmXrojWSTg3VxTXY9xx8PAvnFVLSM5YnDRp9wbr/RVrpMtZ+auHmmVL9o0+5PDlnWOOzThzvpntaVtDpIU90eMmYnTXQclCZxfw0j68L2oU+utMyfGNhcLD+RWurSi/t7mTmr8qmNMqv4pvy+xgvL410i27q28Hd5jH7Hz//jTTLcqT7bOHdjUO/18dLV08yxXN8N/nSx2bY+nFPdSb7BzcDTKRqduDAYF9Akpkd+JDwdakzZyIryWbRNIYlbPqNcD7Z3eQJyCfTWD7NXuMeL4O/5yfsnbeOzXcafy/wgds3M9nmeW/RTh0fnoL/aPyTOU5kSeUU//InfNB4DU41mq0g9yyfw1csy+Dr3rflw+08au1W+Fwj7Vzj4/f9E09Ufpu5M43lcPs0VPByfQut5/fyz5F++RG8Bpb+zysAAAWVSURBVKsWZ0Gzx1KT68vbmXdEejDGNuksMqebdrB+QTrdts8NL2S+rfw2Tw4KqIAIz9nwr+3Y72EDx57FfLo5PORzLY7pF1Ls10NYG/fSer6Ff3+5ItItOO/2Urg0iinWS5LJ9A8QByh9LCviMeJR79Pg/56R568xKorzFR/hrj/fc7Ow2F+5UTnN3ip1RwoZlpn5qhZbxiZbth/83E1EuQX/FNTBAo0+3m/zQrvHbNFZ//eZOP3L+z/qwU0P9ea4qck88FX/8ikPzXhp/KjP3MeiHMtyIoT8ngFm5rF15g3eG9TCFcYI59uwZd9AJdksmhZiXQhR5ZMgAqdED/f7VEP9hfp862cYgZ3x/uiCtYp4tlQNTKcOwLw1rJ13nVN73uJIpFOdxqqxg5Vvp1BrDki3DO6tPccz2TN4usbFcsCoxdnt3+7/1mfwtH+75rfPcHjBQNeJ3T89Q86LRTxtqSmMd03gtn0fcfuK6TSt9S0Hb3oObW/bZV5kErflVgD7Itiil22vdfL6On93gXO+MRY/8K/d/W4ni9bl+buUeDlc76EwoKXK9x6ju4FRS9bLtkMeapcar3s4XO9N7MxkUeaTkIUUZ3KYB1eypavUyDtW9QKTjjzBlg99y9Ypptt/+BQHdm8faOWKeOrzOl7dOJknt25ny1aAa3yw0T873RD79NlH+6XnYdIkcpYCkUwuEus1OC1voLvTuVZzHI+PkQeNwdz2AeTB9bLtR608W2PpPjPoc6Nzz/I5fAX4yiPb2WJ0PzOm947gnA3/2o71HpbOcvN68LBzdeiuSgPilX726eh5wJcPjSnQo78e7D8hwCPb2fKIPd/z0adc5k4mZc8g0nQ/8cppdjpdlvQLnMwjBP8EOcuNe9S5Tg73RPZ7QFHvcwSNia5+UZyv8Ozd2H0T30TWGhTu+tv901ZKa/z3r55OnnkbnjYekLWdHF5QZJ7L7vpOmqfZW6qCP3cTU25Z//e+KdGd80poMrr2Gd3xjjRTVFFC01p/tz7rVONdnSw4kkfT2hJWAvbpz7up+k0yhx4uoQnfd7RPtx5GQBe+lWtLWGl2DwzoNjivhKZ5kX122O9p3ed1S2+jSI10vg1X9gUgmflmWShwXXxFO65p+BNO2NcFdjmMPrDax7gpefmfD3OrEVU0YyZnTkcwbdDSl/j3jfC/Zz8eQ7/eLzPfmCMGzeD0BaN8MjZt3EvrGvjV1CX23w+LA19X1M74TYAw5ozite3vbvTekEHol0EFL9c/j+uDH/P33x+JQvoXUzS/U2V9jyH2bj46X3IzijHfVk6jdkGfffa/Mch6Pwg1TToEn5RiKJF+VrhjitRNMKbKYtI3+B9LYW/E02gLwD/vbeF7dxFkStwvKOWTMcQ/gQgfjkpA9WXzpbu2xwjftMGTuHxABfShxPLDmyM1XkLnS25GI5Fvq4rTwT++eywbajr1EfsB32FsM7zP9pV1bp6WKgYyGFHM8CZfHsonX25fvpaqUaSWKhGRMS3cb6BJfN1UQZWIiIiIiMhYc/PM/iciIiIiIjIGKagSERERERGJgYIqERERERGRGCioEhERERERiYGCKhERERERkRgoqBIREREREYmBgioREREREZEYKKgSERERERGJgYIqERERERGRGCioEhERERERiYGCKhERERERkRgoqBIREREREYmBgioREREREZEYKKgSERERERGJgYIqERERERGRGCioEhERERERiYGCKhERERERkRgoqBIREREREYmBgioREREREZEYKKgSERERERGJgYIqERERERGRGCioEhERERERiYGCKhERERERkRgoqBIREREREYmBgioREREREZEYKKgSERERERGJgYIqERERERGRGCioEhERERERiYGCKhERERERkRj8f4DvsG2cv4c2AAAAAElFTkSuQmCC;" vertex="1" parent="1">
                    <mxGeometry x="190" y="280" width="773" height="80.65" as="geometry"/>
                </mxCell>
                <mxCell id="18" value="" style="shape=image;verticalLabelPosition=bottom;labelBackgroundColor=default;verticalAlign=top;aspect=fixed;imageAspect=0;image=data:image/png,iVBORw0KGgoAAAANSUhEUgAAAdQAAACxCAYAAAB9aUwxAAAgAElEQVR4nO3db2wj550f8K+v67ZX9ODm3JEXqtRd0cvbLBkF0ArVVkKvCRqAJA4rjQg4BRogqAGKAnhCDoL0omPaLxOZLSBBaKobQBQBFy7uxdkANaJeUARySOGUqnSQhAtNORtlpfVxTydrkrvuJdf04qbui/lPDimSGknU+vsBFlhyyJnneTic3/x+z1Dzwp07dz6Dzv/FLwEAPip/CCIiImreb1x1A4iIiJ4HN9yevBf80mW3g4iI6FpzDag//tf/6bLbQUREdK25BtSfPf6fl90OIiKia801oP6///ury24HERHRtcaLkoiIiDzAgEpEROQBBlQiIiIPMKASERF5gAGViIjIAx0ZUL/++9/As5UYfvz7r7b0+mdvDTV41at4d75qna+Nt7QdIiKielx/NnM5XsW781/F2Ev6wydPsPaF29ZjAK/c/yqerXxVe/DsCSZmv4f3XNb03t4n+M7923jldje+DeCtOltce7+E27Gv4tlKP747sVr3dURERK06V0D9x//g7+HOP/3NustPfv4rnPzNGb9pfVLCd9GPb9kev/TtbcdLvv1WDN/6gvFoCB+s9OPLrit7Gd9aiVnrAvDJ7vfxO3/4GMBjvLf5GO9tbmvrWxkH8o2bRkRE1KwbL774Yttv/g//5p/jX/X9k7rLT/7mV/h3/63c9vobapCx1tKCMPIZ/O77wFvfzuAtaKViIiIiL5xrDvXxT/9Pw+V/9pe/aGu9334rps2JnjkvahjCB1Wv1dbxDbw7DGD4Z/jP+Z/hy5EYns1/DV+vevcnp4/baicREZHhXAH1nT/9Szz+6S9dl/3tr36N//KDp+2v/EkJ333S6AW/hT+YN4LoNv77EwD6HCowhK/cBvDsE6xtAth8jPfeX8VLE9/HGm5jxSWoEhERnce5L0pK/cmfI/1v79Y+/72P8Yu/+/V5V9/AP8IrLwF46Q7eHd7G2l/9Erj9Mr7yGoC/+C28AgB//XO8V33xEwDgNlZWYuajL0dieBaxllrzrkRERM05d0D9yU//N/7rn57g3/+Lm+ZzPzj6X/jB0bPzrrqxv/4JfmezG88iL2Psa0P45ve0K32//MUhfL3rFbwC4Ic/0i5u+uasS3B8bRzPIi+3OBdLRETkzpPfodpLv3/7q1/jP/7Jnzf/5tv9+NbtFp4f1rLPT/7qZ8D7Jaw9g1bq3XyCLf3/f/Dbvwngl3jyF/U2+ireHX5Z++9Lt7GyMq6XiomIiNrj2R92mFYOML16gIk//lFrpd56c6VPSnhpIlPzExr8Mz2gnmo/hVl7/EsAL+Mrrz3GN2czeGniGLDPn9YYwgcrWgn4h/kMJna1939rJYYPXmu+2URERHae/WGHX/zdr/Fnx61c1fvYVordxlt4Fe/Oaymp8bMWzau49QXr/1pmaWWf7/3hHznLta9148sAPnn8pKqMa5tLdZR5/8iaZ43E8OyLtb+DJSIiOssV/qWkszj/gMMP81oAfO/92/jx136OtYFv4Fms/h+VMP7K0ie738cf//ZXtfLxsyeYmHCbL9WD+2vjeBbpxwevbeN337+QThER0XPqhXv37n1mPLj9qna17v945eGVNYiIiOg66sg/jk9ERHTdMKASERF5gAGViIjIAwyoREREHmBAJSIi8oDrz2Z+48bfv+x2EBERXWuuAfXlV//lZbeDiIjoWnMNqL+Wf++y20FERHStcQ6ViIjIAwyoREREHmBAJSIi8gADKhERkQcYUImIiDxw49NPP73qNhAREV17zFCJiIg8wIBqiC5h+1BB8qrbQURE11JnBFRJwdHWEkTbU0nlANvyqB7oDnBU/W9rCSIkrLstMwKjy3vXJfcmiKEBYGMFc/bn5KJtWy11yGxXve25G4W8ZbV1Wx51ttFoj1ubHH0tQo621GAiIjqnzgiojWSnMOTzo8/nR7oEqBsz6PP50fdgCgpSeKgvm95QgVJGW+YTbYFxH2n9NX3L+whOugUbCfEwsFPImc8klQMsdq9p621FdAnbh2OozGZQbrGrovwGBnf1/s0WgPAbVlslBYv39zBt9Hd3AIuKEa0lrM8PYGdW7+fsHgbnmW0TEV2mzg+oXkptogwBvXernpeGESytIZG1npoT/egTU61vIzuFId+IY13NUhIjGEroQT2bx45qtHUUcjSAcnYKCrTHkfsC0D+MJABRHnO0XwwNQEAAIy1lx0REdB6dE1CFEBZtpdl4/wVsQxpGEPsoOuLkKOSogPw7bQTPixSNYFAw2hpEr6Ci8gjQyskL6M1mtJODKBDsFqAea/mwkVmnS0DXrdEGGyAiIi91TkBVC2Y50yjveiOAuBGoJ4G0oxwMQJpABHvIt5FRXhwJ6/MhnC5XtfWuUU7242FN/A9C3jrA+PFMe5k1ERGdi+vdZp4v+7VB1CY5HEA5K+ql1E4gYf0wBizbg2YZFTWGyGQP0r4RrS/RXnRBRTELlEMq4uEYepf9GEoBwCh6bwKnm7l6GyEiIo91ToZ6FaJLGL9ZQLqthM64ItfDi3+iS9iuCaYAkEN+VwVKm+aJQfL1EAT9sVLYg2ovZUsTiAjVpW0iIrpIn+uAmnw9BOzmXbNT4ycqi2HBmt9VmrnKx/jJTAxBAMHJ5n/Gknw9BMF8j/PnMUpiBGnErDlmZKzSbnYKQ8toXNomIqIL9cKdO3c+Mx74v/glAMBH5Q+vrEGXJrqE7fkerDLwEBGRBz4Hc6h1ZKcw1FEXIhER0XX2uS75EhEReYUBlYiIyAMMqERERB5gQCUiIvIAAyoREZEHGFCJiIg8wIBKRETkAQZUIiIiDzCgEhEReYABlYiIyAMMqERERB648eKLL151G4iIiK49Zqh0+STFuj1dnVviJRWP7zXbhIvdpnb/3HWX7l5FX1uVVA6wLY9edTM6Q3QJ28b+2+StGenzoaMCqnZgsf65HXxaJ2H9InZ6STHvVdos4x6r1f8+dweqlIg+nx/TG+qlblaUi03e0/YCRCMYRLs3sydXbXwHm9F4PxmFLIVwuuxHn8+PPt8IEs3ctcp+Etn0vZXpuumQ27eNQt5aQAQFTPumXG/4/TxQEiN63ySsH46hMtvkl/FzaE70X/p9ai9ym9rN7Gdc9+2r6Cu1K4heQUXlUSvvkbA+CaR9xuc8CnnrDcjRFL//z5nOyFCjEQwK+0g/qBdMtXKZeXZnOysV5SK25SWsm2d/VulMy3hjCEJAZL52uRbY3DPFpHKAddlW2jG3qb9nMgAIISx6dcYZXcJ2VSYtykVzu1o/Jds4VGXdjjKUS3avnyG3lvU7x8cxdtElbG8tIWnLuq3xk7B+qCDZRGnXfRxqP2dL433BNfPX17kYFoD+WN3ldbdZlV1YY6j1U3YdA+c4jvTvYzWRq7vOmu1WLXest+qzbm6/rRq/FsdWE7H2B8eyBvsJRiFvFSFLddpU1Zfq/cRRtfLkO1hdsbI9brifGH2sOp40tc0yKmoAceO10gQigooKg+lzpzMC6t0eCOpTlF0Xatnr4O6MXmLxI30SwqJtRxbCIUAvwaRLAYzrB5g50Y8+XwZlqMjPGiUa0XaWOIaK+fwMdu6/4QhSwfAAdma1ZXmEEJcAIIWHPj/6lvcBtYBpvU194jlredkprJYEDIaMg+MoIvcFlLPWSYYQjqE369fLpUDkdWMMJKzP92DVaIsvA0x6MSen99VnbFMwx1ZrUAjx7jVt+WwBCE/YthlAPPpUH58Myv1jzZXds1MYMsa3hl7JOMmYbeqznYQpiRHreV8Gp0Z79HVOb6hAyXrvkBHgGm1TUnCkZxdGP7sm7QfkACL397R+1oyBRpTH0LWx4sxC9bK3sU5n8XsUclSw7bO2tkaXsD1v7JdGPxccJ0ru++1ZGo8tAAjhAf37Ur3eM/YTCIhEge/4at+bfN1ePnV+j0S5iPFj63s/vTuAN+VRnPkdrD5ZaXaus+F+YvSx6njS1Pc+h8QDP9LQg3T0KabN4xA9TzoioIq3hAZLg+gVnGf3c5v7wM1e6yy3lMFDfb8uH6sQuoNnbzQawaBgz1wXEBEE9N61XqJuvK2XZHKonABdt5qb66zOlJrNCufeKQD3I1q/3ObcbP1UCntQjTGQhhFEAHFzm9pZdK/9AKIfwB+2FPedGctiWKga232kjQNKNo8d1b5NFfmUcUBOoVhyjm1bjEpGvYOY40DqMgZtEG8JUO3B0Oin2RdbP7MVnNZsU0I8DOwUcmheDpUTbd+syXjv9kAordlKhSkUS859s/F+qx3cq4PlmWPbcL1n7SewnRhq27d/X4OTbpmedkIphBcarteV/WTF/Hfx0yv1v/fa+MSRsRKCDr8IjdrTEXOoyscqFsM9CAKXO3+qFjBdt8zcPmuutEXZPHakBe3s/dYAsPt28+spZc6fJVcR5Tcc89qiXMRit6eb8JCE9ckAysvGwVqbp75y0jCCpTU8bPFgbsyragfphQv5fL1ynv3E/K7oJ0PO76SKfDvXGUiKVg52aHNdLaj7vTentLTPb06cQe/WAkYkAJ35kVKbOiJDRWoFefscg4M2/2CVkEYhRwNQd/NNBpsyKqpLdpSt4FQI6SWkNjx6ClXQTgK8k0Miu4/gsIJ4WHXOuVXRLnLRx+DRU6j9scaZcBtzqMFuATipmBdSxcMNKgnSBCLYQ97tgBVdwnj/PornPXhk89hx7Av2bfSiC9bFIqI8VvPZKB+rzspGE5SPVQj2Mq40gYjQbF/00u077XdcSYxoJWGj3Y+eQrWXz6NLGO9XW8qAXX+m02hsz9DSflJPStTKqeZ3Ss/SpQZX8db7Dp6ZoVrHg6QS82Q/OZu9chFEbxtDRJ2vMwIqckg8mEH+ZsylZJJD4oE2T2SWZk8y1pxSM+vO7mtlJccFEyk8nC0AtpJSS78FzE5htWQrs3p1GXxqE+X+AIKlzdo5FtuFEnFknHOAy/Y+1rvopDVz7xSgmtscQ2Wjeo7R1v9JVF1UZiunzw9gZ9aaMzJKY46LP8wLNvSyrf2CE7Mv1fuCbZk+B21sc7F7D/nqX+WkVpCHdRGLWU5ttM2UiOkNwdZPAfnZJue/Gp1kNH6j8yKf+QHsmGXlKQwtq7axDeF0ubXMq3ysAghoGZKpwdie4ez9pJ6qi6AOY8CyNbZz4ozj86o5IWzrO5hCekM1vyvjx5nm95N2VX9mhzF0bcy0OP1C18EL9+7d+8x4cPtV7bTto/KHV9YgkrB+GAOWnfOdWhltrXPKftElbM/3YNX14gr+LMi4yKc328S8taRoF6pcwPRD3e1NAmleGEPkqY6YQyWLKI8hqBYw3SFxk9qVQ+JBc1WU5HAAONm8hGCqX8kraPOJDKZE3mJA7RTmhRT7SD/Hf9yCNEnlAPF+/YFawPSDyziDaj7IE1HrWPIlIiLyQIdclERERHS9MaASERF5gAGViIjIAwyoREREHmBAJSIi8gADKhERkQcYUImIiDzAgEpEROQBBlQiIiIP3Pj000+vug1ERETXHjPUz7mk4sHtqYiIqLMCqnbj4zr3PmybhPXDonVDZq9ISlv3HBXlonf3Tm2adt9Jb8azSdElbJufZfX4O+/36Qjojvd5c19XIqLL0CEBVTvgx28WMO3zo0//xxvwXlejkKUB7Mxqn+P0BhCRjMA4CnlLu8Gy9jnPYOf+ghXss1MYMvcB7QbT8cs+/yAiakNnBNRoBIPCPtJ1b7CsBVy3rEWUi9iWl2wZj4KkvkzLeGMIQkBkvnZ5o0wpqRxgXbZlS+Y29fdMBgAhhEVjuUdZpyNLb7KfWrMUR3Zv9EeUizg6XEBEAIKT9TLGiLXemoxQH/uWMsUcEg+sm4srhT2oQg+CAIAgeoV9rCZy5mvzuyq6brmVnYPoFVRUHjW9YSKiK9MZAfVuDwT1KcquC7WbIg/uzpiZa/okhEVbABPCIWBZX1YKYFwPjHOiH32+DMpQkZ81sh5Rv7HyKOStMVRm/bZM6Q1HoAmGjSzLniml8NDnR9/yvnYfSyObEs+fTotyEePHVj+ndwfwpi3I1+snokvYnhTMPk5vqEApg6FEDkpiRGu/CpSXjb5awU5b74A+DheTEYqhAQilTX3cy6ioAYyY25AQDwsQuoOOcdACfwxdG2872kpE1Kk6IqCKt4QGS6szGmBucx+42WtlTKWMWR4uH6uOg3Nd0QgGBXvmuoCIIKD3rvUS1TyY51A5QZ0syqU/ZkBoZS54FJH7AoTwgvm+xapA01I/7eNzhsb9zCHxwI++utWDM0gKFsMq0uYJRw6JVAFdZrY8jMqGCvXYOp3STgKscjAvmiKi6+DGVTcAAJSPVSyGtZJgWwftdqkFTLcbKBpQEiNtrlNFfnak9Ywsm8eOFNJODuYBYB9pn/f9apmk4GgSSJtVAV12CkO2PiaVA/Ru5qrfDSCHRHYCR8NBAG7LiYg6R0dkqEitIK8GEHedh9RKhGZ5E6OQowGou/kmA0YZFdWZeQIAshWcCiFHSbUlj57a5gW9kEPlRLBdvNMCaQKRk4xZKu6rDmAtZthO7cyh6lm6WzB1eV38ZgFp14q5/lkfu08GEBF1ks4IqMgh8WAG+Zsxl1JpDokHGZyapdAFRE60+cGm153dt12QY1zMk8LD2QJgK7HWXOjTSHYKq6UA4u1clNTv1k9gTtTmMBdbLRenVmrGrrovc+/Y+3oBPyNy0OZFAdv42C76spfEF7vXHOVkZ7l8Ab1ZfwufNRHR1Xnhzp07nxkP/F/8EgDgo/KHV9YgaoOk4Cj61Fa+ti7kYjAiIrocHZKh0nnUXtQVRK8AnH7MYEpEdFk64qIkOh8l8TYiWwtYPDzAov6cujGDIf5hDCKiS8OA+lzIIfGA2SgR0VViyZeIiMgDDKhEREQeYEAlIiLyAAMqERGRBxhQiYiIPMCASkRE5AEGVCIiIg8woBIREXmAAZWIiMgDN1588cWrbgMREdG1xwyViIjIA50RUCWl6l6eLd6vU1JavgH2eSWVA9d7ml4Zxxg674V6vrbqNxhv5V6x5+Rob/V9ZqNL2K63nzRaVr2PtXL/2na3eQbHvV8d+6+E9cODNttrfF7Oe9DWtrX1m8a7j6G+PVv7tM9P21+q972O+b4QXYDOCKgAoBYw7fOjz+dH37KKyPxF3wS7faJcRBwZra36v4dXemcXCeuTQFpvS7oUQNx2gJsTrXb2Le8jGG3hQBqNYPAkg3QpgJHLOAhKim1sMyj3x2wHXwnr8wPYmdX7MruHwXkj0I9Clqxl0xtARLL1MyXaPq8Myv1jTe5f59jmGf1cvL9n7vPTuwNYdARNFflZ2+cmNreDifIbGNyd0dtaAMJvWP3MTmHIHAPtZvbxJj9TUS7iyLaPOdu0jzKG9TGRMIJ9lPUl5r43W4CKffP9V/t9IboYnRNQ7VIi0iUBgyH97LrumbV+Jj8ZAIQQFt3O5qveW3NmrJ91t3LGHOyuvv+oTXQJ2/ZszvFYwvqhAtmWmTgyiLal8NAnYk5/NLe5D9zsdT2wi7cE4KSi34j8bGJoAKebKcxt7iM4XDWuW0tI1ulLUjnAumTPtJrMcFOi7UCdQrEEdN3S1ivKYwiW1pDIWm0TYAT6HBIPRsxlSmEPqtCDoNs2or3ogopKton+n3ub+hg4guUo5GgA5ax1Q/jIfQHoH26+ClBnv1USI9ZN5bN57KgCeu+6rSCIXkFF5VFTG0M8LKC8bO1jzvUAxU1oYyINA5ubzfaC6LnSmQEVQPlYhdCtH5ocZ9Z+pE+MM+sUHupZlyPDNQ/IEtbne7Bqy0wwef7S5ZyoZU7tBcQAIkZmMlsAwhOel1KTwwGou3lb0LQC22JYRbrJbEc70KsopgCkNlGuPuALIcS712zZkLMvwclhFG1Z83jLYyVhpF/FTkELEMFuAeqxlvsklQMsdq8hbQu4dmJoAEJp0xEAzPLjfAinrsGh1nm3WWettmAmYf1wAb3ZDMoQ0GtmzQIi821OgRiiEQwK+9rnZ7TRPAGKoWvjbfNkoPF6etEFYz22kyR7yTi1CQxLSA4DxVQZFdXeF6LPh44NqE7OOaV4v/sBrfZtwwgigLj53hiCqPqi66XA1kpQeiD3zWDn/kKLGa6KfErPTLIVnFa355xEuYj4zQK+k7DfH9Vorx99y0C82WxRmkAET/XyXQrFmrLvvhWcjWzI1hd1Y8XKmkW/lTk1ZRTylttBPwh56wDjxzP1y6CS4nriYJW+M8BkK59Z+9s0x97tfXeXsH04hsps9f5n+7yMUvJ81Wd25n4rYd3lxEFJjJgl3537C22cENpOYqueTx+PYfx4pakTFaLnUccGVGdmEEOwZM1ZpkstrKjknOvs8400d1belBwSD9qYl7wgolzU5uUeTNUv6aZWkG8ye0gOO0vp8X44y74XZhTy1gIGd2ccQbh8rEIIx9CbNYLzKHpvAqcf2wK1pOhzfY0y0BTSG2pTJ2XebdOxVlRUAZHJHqwa+2ODMrRS2IPa1HrNBmH9MAYsNwq4OSSy+1YVqJFGJ37RXnSp2kmXo9xM9DnUkQFVlIuI9+9j1XYAM4IroksY7696w6On7vNlj55CdVzU4qKNOdSa9t6qnlM1Dj6jkKUQGsy4ujVIy8ZbvAIzqRycHUwBLesUmpk/1MqtjgtjfJnasq99vdhD/twnK1oJtDqYAkZgsZUwpQlEbCVN68KZswKbNifoCIp1nH+bbnOoOeR3VcBWHk6+HqpbLnZdVm+/jS5h+8xgChjzuOb3qqEUiiWh+QuuiD6nblx1A0x6JrQI6POhRmDIIZGdwNHkAo4OFwDsI7+hYtD+3uwUVl8/QPzwAHFAy0rFlDb3elfB0eQBjib116qFs4NOQ1r2FLFHSfs6jbbMH+BoHigvZ1CeHG5h/WVUVCConyA01U7zJMM2hgDKy348TGnZinmy4RjbBqRhBNU9pB0BsoyKGsO4PIq5AgC9nB4HAOwj3cx6zyDKY1pbw8bnbaxbxJzxeTq2aQQyLUgCgq1NgLqhBeakomXY+rPIz/qbq1ScY5uNKIkRBBVtGgKAtc/q63V8Zo5ljSVf107gBJd9HnIRi2Frxy0v+zHU5FTHnOgHlAPH/oXSJhT04k3Xd9S7GIro+fXCvXv3PjMe3H5V+wZ8VP7wyhpETZZur1p0CdvzPVhtusxJRPR868iS7+eW/hOfjg+mRERUo3NKvqSVFz27YIqIiC4TAyq1h8GfiMiBJV8iIiIPMKASERF5gAGViIjIAwyoREREHmBAJSIi8gADKhERkQcYUImIiDzAgEpEROQBBlQiIiIP3Lh169ZVt4GIiOjaY4baDv2P2B81um+pB/dZvTyjkLdavwcrERFZOiSgSlg/LEKO6g/1gHX1wajOzb6zUxjy+dG3vH9VDWuRFjCvfjybJCntBXf7iY59f9IlFWNZ9Q2/iYjOr0MCqt0oZCmE02U/HjZ58+MLIw2jayODPAYQiZ79coeUiD5fB/ShKTkkHvjRd61vGTcKWRrAzqwffT4/pjeAiGQFZVEuIo4M+nza8jRi2JZHr7TFRPR86biAmlQWMLg7UxOIHNlFVfYiykVr2aGCpLEguoTtrSUkbctbOYgmhwXsFFLI7wKDoWbfp5dPXbIkUS7WtD2pONvUqJ/tlGa1sVlARACCky7t0kvTtVmbhPVDBbI+duuSnq1Xj++h1V5HBly1rLqP7o/1bUwGACGExZayyRwSD0aQ0O+AoxT2oAo9COp9iYeB/DvGTiVhpB8Q7kdY4iYiz3RWQA0piCODoUTO8bQoFzF+PGNmF9O7A3jTOCBLCha718xlfctA3H4AFkKIG8tnC0B4wgoIDUkYubmHfFY7OKPpg6+e7fkyKFctURJrKAv2bFfCSL+KnULu7H62SUmMoM83g7wKlJf1MfJZgcfIpKc3VJd3BxDpXsP0horg5BgqsxmUIaA3qrV9fb4Hq8a4+zLApB5so0vYnreyxT5fBqfhhSZKzik8NErpagHTxrpFPRDag3+D0i4AiKEBCKVNzAFAtBddUFHJ6m07HENluWALuERE59dBAVVAJBxweX4UkfsChPCCeRBdDAsQurVDYXI4APTHrAPsZAC42WsLfvtIGwfkbB47qhEQUHOAtmdNojyG4ElFK4Fm89hpp+xbI4X0hi3blYYRLK3pwa1xPzWXXZpVrazObCestiOAuDl+MQSNYHu3B4Lj9SkUS0DXrXOWWPXg7/w34mwXoJ1khVXrc7c9fzTfg1XfCBKPztcUIqJqHXSDcRX52bcBaQHbcrkqS1WRn3U5cOrK7c63pkT0ub5PC24QYjg6jFmtCI0C2ZzbG5qmFPbwphSBiByCwwGUN+15b+N+dpxSxsoe7S7qeh9J0U6YHKrGTFJwNAmkfaKWnQJAtoLT+RDi0QKmffrJyN0eCOrTmioCEVG7OihDBbQMrLo8mEPlRHBcYGJXPlYRnFSaK+NKE4hAK+M2FI1gUNhH2p4JzRZaKPs2kJ3C6skAIlEJIzcLSJvxqHE/Ne3+vCWHyokHGaLdo6dQ+2PuZdxHT6H2jzmu2h63lbYBWJm3pCDe7/J+t3LsGRmqKBdrg6n2RhRLgLqb1zP7UcjRgO0xEdH5dVhABYAUHs4W0DVplWDnxBnkYbtIxXYBjJIYQbpkLz1WX3hkWzYJpJsolzrm3wzZCk6FEOISrFKx/eIZM8gZF+9oJdDIfO0839ymish8DMg629Kon+c1904BMMvJVnuMC7oWw4JVOm/mIqDsFIaW920XOtnGIDuFoWVV7/sBjuZDOF22At/cOwWoxraiT5Gunr/NTmHV/pk2dVGShHhYgOPzPnTuQzv3jf5rF75Vz9UTEZ3HC5FI5DPzwY1/CAD4qPzhlTXIU9ElbM/3YLUmYyEiIvJWB2aoRERE1w8DKhERkQc66CrfC5CdwtB1uWKWiIiuNWaoREREHmBAJSIi8sWkwewAAATBSURBVAADKhERkQcYUImIiDzAgEpEROQBBlQiIiIPMKASERF5gAGViIjIAwyoREREHrjxo0c/MR/cC37pCptCRER0fTFDvSj6Ld68uv1a+7R7qF59O5oUXcJ29e3gqnXM2BIRWToqoCYV2701O/2AKSlt3OibzpSdwpDPj77l/atuCRFRSzrkj+OPQt5aQAQFTPvOvgH4tZAS0Ze66kY8pzi2RNSBOiNDjUYwKOwj/aBeMNXKlkcupUBRLmJbXsK6mdkqSJrrXcL21hJkpV7WK9ned4BtedS5Wb206Hyv/p7JACCEsGgsV4wV29tahByt7qutpFm1zaRygHW5UclTX/c5MmNRLrpu121s7a+vN7ZJ2/Ka8aunagya70/9sRXlYs16kkrz/SQiOq/OCKh3eyCoT1F2Xahlr4O7M+jz+dHn8yN9EsKiYkVGIRwClvVlpQDG7Qd2IYQIMtp7l/cRjBoH0lHIW2OozPr19c5g5/4b1kFaUnA0KSBvLvfjYQoAUnholCTVAqb1ZX2ikTLlkHjgR58vU9uf6BK25wewY64zg9PwgiPIB8PG8hnkEULcw7K3KBexeH8P0z4/hhI587nxY2tsp3cH8KYxfpKCxe41c1nfMhC3jTuEEOLG8tkCEJ6wAm4jRlnX9nk218/6Y6sk1lAWBhAxg6yEkX4VO4Um+klE5IGOCKjiLaHB0iB6hX2s6gEAAOY294GbvVaGUcrowQ4oH6sQuoO29+8jbQS7R0+hCj0IAnpWLCAyb2QtC4gIAnrvai9NDgegbryNhJf3U73bA6G0ZltnCsUS0HXLOrBb28yhcuJcZgaUupl8fcHJAy04Ot47ish9AUJ4wczcFsOCOX7J4QDQH7OyusmAc9ztY5vNY0cV0Gs/Iamb/TsrA/H+6n62I4X0BjAYMk4GhhE0x7pxP4mIvNARc6jKxyoWw1qgu9T5U7WA6TaC03VUXp5BJbqAbblsZqcaFfnZkbonDuVlv3my0pIG85xJJYZgKWNm9UnlAONtbKKaUtjDm1IEInIIDgdQ3rQXdRv3k4jovDoiQ0VqBXk14CwnmsqoqPYy7ijkaADqbv58gTBbwakQqlv2m9vch9CohGnPdpv16CnU/jGrrBxdwritLHm288yh5pB4UF1izqFyIiAiua+vfKwiOKk0V8aVJhDBHvJnBqxR9N4E1GO9aBtdwnh/k104S3YKqycDiEQljNwsIG0G9Mb9JCLyQmcEVOSQeDCD/M0Yai8CsgKBWZo9yVRlWe1I4eFsAbCVAR0X3aRETG8IiNf7GU92CqulgLXcPBkwypkxBGGUlPULaLJTGFpWrTLzfAiny5eZNWl97pq02jsnanO1iy79VBIjSNv7WFO6tS2bRIOLyuxySGT3rfLrfA92NlRrsVEqtl/0ZZ5ANBhb3dymish8DMg629Kon0REXnjhdt+dz4wHxl9K+qj84ZU1iK6J6BK253uw6hMxd9VtISLqAB2SoRIREV1vDKhEREQe6IirfOkayk5hiFfMEhGZmKESERF5gAGViIjIAwyoREREHmBAJSIi8gADKhERkQcYUImIiDzAgEpEROQBBlQiIiIPMKASERF5wPUvJY2LDy+7HURERNfa/wcDfR4PAL0fegAAAABJRU5ErkJggg==;" vertex="1" parent="1">
                    <mxGeometry x="580" y="38.82" width="399.73" height="151.18" as="geometry"/>
                </mxCell>
            </root>
        </mxGraphModel>
    </diagram>
</mxfile>